<?xml version="1.0" standalone="no"?>
<!DOCTYPE svg PUBLIC "-//W3C//DTD SVG 1.1//EN" "http://www.w3.org/Graphics/SVG/1.1/DTD/svg11.dtd" >
<svg xmlns="http://www.w3.org/2000/svg">
<metadata>Generated by IcoMoon</metadata>
<defs>
<font id="ds-font" horiz-adv-x="1024">
<font-face units-per-em="1024" ascent="896" descent="-128" />
<missing-glyph horiz-adv-x="1024" />
<glyph unicode="&#x20;" horiz-adv-x="0" d="" />
<glyph unicode="&#xe502;" glyph-name="liebiao" d="M347.67 702.924h588.071c25.156 0 45.552 20.393 45.552 45.552s-20.393 45.552-45.552 45.552h-588.071c-25.156 0-45.552-20.393-45.552-45.552s20.393-45.552 45.552-45.552zM347.657 339.629h585.912c25.156 0 45.552 20.393 45.552 45.552s-20.393 45.552-45.552 45.552h-585.912c-25.156 0-45.552-20.393-45.552-45.552s20.393-45.552 45.552-45.552zM935.741 65.423h-588.071c-25.156 0-45.552-20.393-45.552-45.552s20.393-45.552 45.552-45.552h588.071c25.156 0 45.552 20.393 45.552 45.552s-20.393 45.552-45.552 45.552zM24.541 748.476c0-50.313 40.788-91.101 91.101-91.101s91.101 40.788 91.101 91.101v0c0 50.313-40.788 91.101-91.101 91.101s-91.101-40.788-91.101-91.101v0zM24.541 385.726c0-50.313 40.788-91.101 91.101-91.101s91.101 40.788 91.101 91.101v0c0 50.313-40.788 91.101-91.101 91.101s-91.101-40.788-91.101-91.101v0zM24.541 20.131c0-50.313 40.788-91.101 91.101-91.101s91.101 40.788 91.101 91.101v0c0 50.313-40.788 91.101-91.101 91.101s-91.101-40.788-91.101-91.101v0z" />
<glyph unicode="&#xe505;" glyph-name="arrow-right1" d="M794.408 383.965l-507.395 484.162-57.416-54.832 449.91-429.282-449.879-429.304 57.374-54.832 507.4 484.093z" />
<glyph unicode="&#xe506;" glyph-name="arrow-down2" d="M511.963 98.927l488.738 512.187-55.351 57.959-433.336-454.163-433.362 454.13-55.351-57.917 488.662-512.195z" />
<glyph unicode="&#xe507;" glyph-name="arrow-left2" d="M229.592 384.035l507.395-484.162 57.416 54.832-449.91 429.282 449.879 429.304-57.374 54.832-507.4-484.093z" />
<glyph unicode="&#xe508;" glyph-name="down-arrow" d="M126.25 228.139l335.875-335.874c2.063-2.052 4.508-3.723 7.218-4.898l0.153-0.060c0.088-0.041 0.166-0.093 0.255-0.13 1.060-0.448 2.325-0.852 3.633-1.148l0.157-0.030c0.234-0.057 0.452-0.156 0.691-0.202 1.557-0.311 3.136-0.473 4.708-0.473h47.534c7.859 0.012 14.822 3.853 19.118 9.761l0.047 0.067 333.003 332.988c4.3 4.298 6.957 10.235 6.957 16.791s-2.661 12.497-6.957 16.791v0l-33.586 33.591c-4.299 4.297-10.236 6.953-16.791 6.953s-12.496-2.655-16.791-6.953l-261.238-261.248-0.001 824.983c0 0.002 0 0.004 0 0.010 0 13.113-10.631 23.749-23.749 23.749-0.002 0-0.004 0-0.010 0h-47.502c-13.113 0-23.749-10.631-23.749-23.749 0-0.002 0-0.004 0-0.010v0l-0.001-825.533-261.799 261.799c-4.299 4.297-10.236 6.953-16.791 6.953s-12.496-2.655-16.791-6.953l-33.586-33.591c-4.302-4.298-6.964-10.237-6.964-16.798 0-6.558 2.66-12.494 6.954-16.788v0z" />
<glyph unicode="&#xe509;" glyph-name="left-arrow" d="M357.088 767.401l-333.827-333.828c-2.037-2.051-3.7-4.483-4.869-7.175l-0.059-0.152c-0.038-0.085-0.093-0.164-0.131-0.254-0.443-1.055-0.845-2.311-1.14-3.61l-0.028-0.156c-0.056-0.234-0.155-0.45-0.201-0.689-0.309-1.547-0.473-3.118-0.473-4.679v-47.244c0.011-7.811 3.831-14.732 9.702-19.001l0.069-0.047 330.958-330.972c4.271-4.273 10.172-6.916 16.689-6.916s12.421 2.643 16.689 6.916v0l33.389 33.381c4.27 4.272 6.912 10.173 6.912 16.689s-2.641 12.42-6.912 16.689l-259.657 259.648 819.955 0.001c0.002 0 0.004 0 0.009 0 13.034 0 23.602 10.567 23.602 23.602 0 0.002 0 0.004 0 0.009v47.211c0 13.034-10.567 23.602-23.602 23.602-0.002 0-0.004 0-0.009 0v0l-820.503 0.001 260.206 260.206c4.27 4.272 6.912 10.173 6.912 16.689s-2.641 12.42-6.912 16.689l-33.389 33.381c-4.271 4.275-10.174 6.922-16.695 6.922-6.518 0-12.415-2.642-16.686-6.913v0z" />
<glyph unicode="&#xe50a;" glyph-name="up-arrow" d="M897.75 539.861l-335.875 335.874c-2.063 2.052-4.508 3.723-7.218 4.898l-0.153 0.060c-0.088 0.041-0.166 0.093-0.255 0.13-1.060 0.448-2.325 0.852-3.633 1.148l-0.157 0.030c-0.234 0.057-0.452 0.156-0.691 0.202-1.557 0.311-3.136 0.473-4.708 0.473h-47.534c-7.859-0.012-14.822-3.853-19.118-9.761l-0.047-0.067-333.003-332.988c-4.3-4.298-6.957-10.235-6.957-16.791s2.661-12.497 6.957-16.791v0l33.586-33.591c4.299-4.297 10.236-6.953 16.791-6.953s12.496 2.655 16.791 6.953l261.238 261.248 0.001-824.983c0-0.002 0-0.004 0-0.010 0-13.113 10.631-23.749 23.749-23.749 0.002 0 0.004 0 0.010 0h47.502c13.113 0 23.749 10.631 23.749 23.749 0 0.002 0 0.004 0 0.010v0l0.001 825.533 261.799-261.799c4.299-4.297 10.236-6.953 16.791-6.953s12.496 2.655 16.791 6.953l33.586 33.591c4.302 4.298 6.964 10.237 6.964 16.798 0 6.558-2.66 12.494-6.954 16.788v0z" />
<glyph unicode="&#xe50b;" glyph-name="right-arrow" d="M666.912 0.599l333.827 333.828c2.037 2.051 3.7 4.483 4.869 7.175l0.059 0.152c0.038 0.085 0.093 0.164 0.131 0.254 0.443 1.055 0.845 2.311 1.14 3.61l0.028 0.156c0.056 0.234 0.155 0.45 0.201 0.689 0.309 1.547 0.473 3.118 0.473 4.679v47.244c-0.011 7.811-3.831 14.732-9.702 19.001l-0.069 0.047-330.958 330.972c-4.271 4.273-10.172 6.916-16.689 6.916s-12.421-2.643-16.689-6.916v0l-33.389-33.381c-4.27-4.272-6.912-10.173-6.912-16.689s2.641-12.42 6.912-16.689l259.657-259.648-819.955-0.001c-0.002 0-0.004 0-0.009 0-13.034 0-23.602-10.567-23.602-23.602 0-0.002 0-0.004 0-0.009v-47.211c0-13.034 10.567-23.602 23.602-23.602 0.002 0 0.004 0 0.009 0v0l820.503-0.001-260.206-260.206c-4.27-4.272-6.912-10.173-6.912-16.689s2.641-12.42 6.912-16.689l33.389-33.381c4.271-4.275 10.174-6.922 16.695-6.922 6.518 0 12.415 2.642 16.686 6.913v0z" />
<glyph unicode="&#xe50c;" glyph-name="arrow-up1" d="M512.037 669.073l-488.738-512.187 55.351-57.959 433.336 454.163 433.362-454.13 55.351 57.917-488.662 512.195z" />
<glyph unicode="&#xe602;" glyph-name="dengji" d="M920.058 754.548c-226.621 0-382.714 132.286-384.314 133.63-6.656 5.696-15.296 8.512-24.064 7.68s-16.768-5.184-22.272-11.968c-80.191-100.798-286.78-127.422-385.274-127.422-7.808-1.024-16.832-3.328-22.912-9.408-6.080-6.016-9.536-14.272-9.536-22.848v-370.234c0-159.294 243.644-481.977 443.001-481.977 208.765 0 437.625 330.107 437.625 470.329v379.962c0 17.792-14.528 32.256-32.256 32.256zM887.802 342.33c0-111.55-207.293-405.818-373.114-405.818-158.59 0-378.49 289.788-378.49 417.466v338.811c79.295 3.712 275.836 23.424 382.33 127.294 53.119-38.335 187.005-120.318 369.338-129.278v-348.475zM366.658 581.622c-7.68 16.064-26.944 22.72-43.007 15.104-16.064-7.68-22.848-27.008-15.168-43.071l174.461-362.683c5.312-11.136 16.512-18.176 28.8-18.24 0.064 0 0.192 0 0.256 0 12.16 0 23.424 6.912 28.864 17.856l180.157 362.683c7.936 15.936 1.472 35.263-14.528 43.199-15.936 7.936-35.263 1.408-43.199-14.528l-150.846-303.547-145.79 303.227z" />
<glyph unicode="&#xe606;" glyph-name="daishenhe" d="M240.925 702.863h512v-62.862h-512zM239.218 574.294h512v-64h-512zM239.218 446.294h329.102v-64h-329.102zM239.218 318.294h137.955v-64h-137.955zM880.64 896h-768c-35.225-0.162-63.716-28.753-63.716-63.999 0 0 0 0 0-0.001v0-896c0-35.346 28.654-64 64-64v0h299.235v64.284h-299.235v895.715h768v-409.6h64v409.6c0 0 0 0 0 0.001 0 35.346-28.654 64-64 64-0.1 0-0.201 0-0.3-0.001h0.015zM739.555 342.756c-129.917 0-235.235-105.318-235.235-235.235s105.318-235.235 235.235-235.235c129.917 0 235.235 105.318 235.235 235.235v0c0 129.917-105.318 235.235-235.235 235.235v0zM739.555-69.119c-97.276 0.162-176.073 79.057-176.073 176.355 0 97.398 78.957 176.355 176.355 176.355s176.355-78.957 176.355-176.355v0c-0.162-97.433-79.184-176.355-176.64-176.355 0 0 0 0 0 0v0zM768 119.467v105.529c0 16.259-13.181 29.44-29.44 29.44s-29.44-13.181-29.44-29.44v-117.76c-0.002-0.133-0.004-0.29-0.004-0.448 0-7.956 3.267-15.15 8.532-20.313l58.885-58.885c5.314-5.314 12.655-8.601 20.764-8.601 16.218 0 29.365 13.147 29.365 29.365 0 8.109-3.289 15.45-8.601 20.764v0z" />
<glyph unicode="&#xe60c;" glyph-name="quyu" d="M859.615-103.195h-697.848c-75.745 1.649-136.518 63.442-136.518 139.429s60.772 137.781 136.365 139.427l0.153 0.002h70.096l69.79-69.73h-139.642c-37.263-1.614-66.86-32.216-66.86-69.729s29.598-68.115 66.716-69.725l0.146-0.005h697.848c37.263 1.614 66.86 32.216 66.86 69.73s-29.598 68.115-66.716 69.725l-0.146 0.005h-139.583l69.791 69.73h69.79c0.876 0.019 1.908 0.031 2.943 0.031 77.021 0 139.46-62.439 139.46-139.46s-62.439-139.46-139.46-139.46c-1.034 0-2.066 0.012-3.096 0.033l0.153-0.002zM510.66 36.264c-57.914 0-348.893 342.256-348.893 487.928 2.58 190.745 157.81 344.381 348.924 344.381s346.344-153.636 348.922-344.137l0.002-0.243c0-143.905-291.709-487.928-348.955-487.928zM510.66 803.051c-1.701 0.039-3.706 0.060-5.715 0.060-149.097 0-270.317-119.359-273.321-267.736l-0.004-0.28c0-111.874 232.697-394.569 279.041-394.569s279.103 284.462 279.103 394.568c-3.007 148.659-124.227 268.019-273.325 268.019-2.032 0-4.058-0.022-6.079-0.066l0.301 0.005zM336.243 524.192c0 0.073 0 0.158 0 0.245 0 96.361 78.117 174.478 174.478 174.478s174.478-78.117 174.478-174.478c0-96.361-78.115-174.477-174.477-174.478v0c-0.108 0-0.237 0-0.365 0-96.159 0-174.112 77.953-174.112 174.112 0 0.044 0 0.087 0 0.131v-0.006zM615.346 524.192c0 0.036 0 0.079 0 0.122 0 57.817-46.87 104.686-104.686 104.686s-104.686-46.87-104.686-104.686c0-57.817 46.87-104.686 104.686-104.686v0c0.091 0 0.198 0 0.305 0 57.706 0 104.495 46.746 104.564 104.436v0.006zM615.346 524.192" />
<glyph unicode="&#xe611;" glyph-name="quanbu" d="M479.926 416.177h-240.964c-132.818 0-240.964 108.042-240.964 240.86s108.146 240.964 240.964 240.964 240.964-108.146 240.964-240.964v-240.86zM238.964 833.751c-97.352 0-176.714-79.258-176.714-176.714 0-97.352 79.362-176.714 176.714-176.714h176.714v176.714c0 97.454-79.362 176.714-176.714 176.714zM238.964-129.999c-132.818 0-240.964 108.146-240.964 240.964s108.146 240.964 240.964 240.964h240.964v-240.964c0-132.818-108.146-240.964-240.964-240.964zM238.964 287.677c-97.352 0-176.714-79.258-176.714-176.714s79.362-176.714 176.714-176.714 176.714 79.258 176.714 176.714v176.714h-176.714zM785.036 416.177h-240.964v240.86c0 132.818 108.146 240.964 240.964 240.964s240.964-108.146 240.964-240.964-108.146-240.86-240.964-240.86zM608.324 480.325h176.714c97.352 0 176.714 79.258 176.714 176.714 0 97.352-79.258 176.714-176.714 176.714-97.352 0-176.714-79.258-176.714-176.714v-176.714zM785.036-129.999c-132.818 0-240.964 108.146-240.964 240.964v240.964h240.964c132.818 0 240.964-108.146 240.964-240.964s-108.146-240.964-240.964-240.964zM608.324 287.677v-176.714c0-97.352 79.362-176.714 176.714-176.714s176.714 79.258 176.714 176.714-79.258 176.714-176.714 176.714h-176.714zM608.324 287.677" />
<glyph unicode="&#xe618;" glyph-name="marks" d="M875.577 602.715v281.444h-727.154v-197.12h615.452v55.851h-560.697l2.19 85.419h614.357v-169.742h-671.303v-168.647h671.303v-507.036l-307.726 141.269-307.726-141.269v422.713h-55.851v-507.036l363.577 168.647 363.577-168.647v647.211h-671.303v56.946z" />
<glyph unicode="&#xe61c;" glyph-name="ID" d="M252.769 628.407h63.642v-480.955h-63.642zM750.48 587.074c-19.468 16.613-42.992 28.097-70.538 34.437-19.677 4.592-48.225 6.896-85.624 6.896h-165.69v-480.955h173.548c29.090 0 54.841 2.72 77.271 8.193 22.416 5.48 41.549 13.508 57.418 24.119 15.847 10.618 30.458 25.17 43.794 43.652 13.336 18.474 24.269 41.82 32.819 70.031 8.535 28.226 12.794 60.58 12.794 97.119 0 42.856-6.281 80.986-18.853 114.334-12.599 33.326-31.58 60.729-56.937 82.172zM748.005 298.848c-8.422-25.471-20.163-45.762-35.266-60.865-10.726-10.703-25.092-19.032-43.137-24.941-18.045-5.911-42.928-8.85-74.646-8.85h-102.693v367.462h101.062c37.849 0 65.265-3.284 82.351-9.845 23.619-9.195 43.688-27.295 60.209-54.306 16.505-27.022 24.777-65.681 24.777-115.965-0.014-36.31-4.236-67.219-12.657-92.691zM872.53 747.936c-95.944 94.263-223.982 146.176-360.53 146.176-136.254 0-264.356-53.061-360.703-149.408s-149.408-224.447-149.408-360.703c0-136.254 53.061-264.356 149.408-360.703s224.447-149.408 360.703-149.408c135.976 0 264.135 54.209 360.872 152.639 46.748 47.565 83.479 102.797 109.179 164.16 26.583 63.472 40.060 130.572 40.060 199.434 0 135.972-53.122 263.045-149.581 357.813zM512-71.161c-250.977 0-455.162 204.185-455.162 455.162s204.185 455.162 455.162 455.162 455.162-201.437 455.162-449.039c0-254.353-204.185-461.285-455.162-461.285z" />
<glyph unicode="&#xe633;" glyph-name="jiahao" d="M512 896c-285.257 0-512-226.743-512-512s226.743-512 512-512 512 226.743 512 512-226.743 512-512 512zM512-54.857c-241.371 0-438.857 197.486-438.857 438.857s197.486 438.857 438.857 438.857 438.857-197.486 438.857-438.857-197.486-438.857-438.857-438.857zM731.429 420.571h-182.859v182.859c0.001 21.94-14.627 36.57-36.57 36.57s-36.571-14.629-36.571-36.571v-182.859h-182.859c-21.94 0.001-36.57-14.627-36.57-36.57s14.629-36.571 36.571-36.571h182.859v-182.859c-0.001-21.94 14.627-36.57 36.57-36.57s36.571 14.629 36.571 36.571v182.859h182.859c21.94-0.001 36.57 14.627 36.57 36.57s-14.629 36.571-36.571 36.571z" />
<glyph unicode="&#xe63e;" glyph-name="wj-xinzeng" d="M950.4 612.479l-277.12 274.56c-5.746 5.545-13.578 8.961-22.208 8.961-0.068 0-0.135 0-0.203-0.001h-490.87c-53.019 0-96-42.981-96-96v0-831.999c0-53.019 42.981-96 96-96v0h768c17.673 0 32 14.327 32 32v0 685.44c0 0.056 0.001 0.121 0.001 0.187 0 8.949-3.674 17.041-9.595 22.848l-0.005 0.005zM896 575.999h-256v256zM160-64.001c-17.673 0-32 14.327-32 32v831.999c0 17.673 14.327 32 32 32v0h416v-320h320v-576zM544 447.999h-64v-128h-128v-64h128v-128h64v128h128v64h-128v128z" />
<glyph unicode="&#xe659;" glyph-name="zhihuibu" d="M471.52 694.659v172.114s0 29.191 39.806 29.191c0 0 39.806 2.275 39.806-29.191 0 0-6.066-15.543 42.839-11.752 24.108 4.53 51.842 7.122 80.181 7.122s56.073-2.591 82.978-7.55l-2.797 0.428c6.228-1.831 11.633-4.153 16.686-7.025l-0.384 0.201v-105.77s0-18.955-25.021-12.131c-18.732 5.684-40.26 8.956-62.552 8.956s-43.821-3.272-64.131-9.363l1.578 0.406c-8.627-1.93-18.536-3.035-28.702-3.035-16.911 0-33.107 3.059-48.066 8.653l0.947-0.311v-40.943l387.825-180.075c14.387-6.445 24.228-20.638 24.228-37.129 0-4.761-0.82-9.331-2.327-13.576l0.088 0.284s2.275-29.949-51.558-34.499h-78.854v-443.553h-125.105v379.105h-122.83v-379.105h-128.138v379.105h-127v-379.105h-134.203v442.416h-92.881s-28.054 2.275-28.054 40.943c0 0-5.687 37.911 48.905 56.866zM156.105-41.943h705.894l92.881-85.678h-889.002z" />
<glyph unicode="&#xe65a;" glyph-name="bell" d="M941.251 88.827c-3.563 82.968-44.863 156.585-107.068 204.009v225.151c0 130.048-92.812 239.448-215.464 265.296v5.148c0 59.324-48.536 107.86-107.86 107.86v0c-59.324 0-107.86-48.536-107.86-107.86v-5.148c-122.651-25.848-215.463-135.246-215.463-265.296v-225.151c-62.205-47.424-103.506-121.041-107.069-204.009h107.069v-0.724h646.65v0.724h107.067zM480.293-127.411h61.435c94.104 0 172.346 71.151 183.72 162.305h-428.874c11.374-91.154 89.616-162.305 183.721-162.305z" />
<glyph unicode="&#xe660;" glyph-name="ling" d="M455.109 839.109c0-31.42 25.471-56.891 56.891-56.891s56.891 25.471 56.891 56.891v0c0 31.42-25.471 56.891-56.891 56.891s-56.891-25.471-56.891-56.891v0zM429.826-45.826c0-45.381 36.789-82.174 82.174-82.174s82.174 36.789 82.174 82.174v0c0 45.381-36.789 82.174-82.174 82.174s-82.174-36.789-82.174-82.174v0zM938.668-20.67h-853.332c-11.251 0-21.491 6.701-26.044 16.941s-2.655 22.374 4.93 30.593l90.515 99.364v355.618c0 95.069 37.294 184.574 104.928 252.208s157.266 104.928 252.208 104.928 184.574-37.294 252.208-104.928 104.928-157.266 104.928-252.208v-355.491l90.515-99.364c7.585-8.342 9.483-20.353 4.93-30.593s-14.54-17.068-25.79-17.068zM149.681 36.22h724.639l-54.612 59.922c-4.803 5.183-7.458 12.011-7.458 19.216v366.492c0 165.611-134.638 300.245-300.245 300.245s-300.245-134.638-300.245-300.245v-366.492c0-7.078-2.655-13.906-7.458-19.216l-54.612-59.922z" />
<glyph unicode="&#xe663;" glyph-name="weitongguo" d="M446.366-62.474l3.225 0.025h-322.1c-0.966-0.121-2.084-0.186-3.218-0.186-7.105 0-13.589 2.659-18.511 7.036l0.028-0.025c-5.925 5.263-9.275 12.777-9.226 20.65v839.562c0.009 7.603 3.113 14.479 8.122 19.435l0.002 0.002c5.187 5.15 12.225 8.044 19.577 8.050h716.987c15.3 0 27.7-12.3 27.7-27.469v-387.869c0.426-17.332 14.725-31.168 32.212-31.168 17.475 0 31.776 13.837 32.201 31.168v387.832c-0.025 24.243-9.749 47.481-27.061 64.601-17.251 17.157-40.689 26.813-65.125 26.831h-716.988c-24.45-0.018-47.875-9.675-65.124-26.831-17.301-17.125-27.038-40.356-27.065-64.601v-839.568c0-24.225 9.713-47.475 26.988-64.601 17.275-17.15 40.7-26.777 65.136-26.777h322.238c17.487 0.425 31.424 14.601 31.424 31.95 0.001 17.337-13.936 31.524-31.423 31.949zM514.516 416.731c0 17.344-13.951 31.519-31.425 31.945l-257.675 0.019c-0.009 0-0.015 0-0.025 0-8.873 0-16.911-3.573-22.755-9.359l0.003 0.003c-5.826-5.765-9.435-13.761-9.437-22.601v-0.001c0-8.474 3.387-16.601 9.437-22.594 6.037-5.993 14.225-9.357 22.777-9.357h257.675c17.474 0.426 31.425 14.601 31.425 31.945zM225.415 320.901c-17.787 0-32.201-14.301-32.212-31.932 0-17.65 14.412-31.956 32.212-31.956h122.4c17.787 0 32.201 14.305 32.201 31.956 0 17.631-14.425 31.932-32.201 31.932h-122.4zM771.678 544.532h1.3c-0.005 8.83-3.609 16.818-9.422 22.578l-0.002 0.002c-5.844 5.785-13.885 9.357-22.761 9.357-0.009 0-0.019 0-0.028 0h-515.351c-17.787 0-32.201-14.293-32.212-31.937 0-8.468 3.387-16.601 9.437-22.594 5.84-5.785 13.877-9.357 22.749-9.357 0.009 0 0.018 0 0.027 0h515.351c17.289 0.688 30.937 14.794 30.912 31.95zM579.715 704.264c17.801 0 32.225 14.305 32.225 31.95-0.014 17.644-14.441 31.937-32.225 31.937h-206.15c-0.004 0-0.009 0-0.014 0-8.876 0-16.917-3.573-22.764-9.359l0.003 0.003c-5.826-5.763-9.434-13.756-9.437-22.593v-0.001c0.012-17.644 14.437-31.937 32.213-31.937h206.15zM734.326 383.138c-142.31 0-257.674-114.425-257.674-255.568s115.363-255.567 257.674-255.567 257.675 114.425 257.675 255.567c0 141.142-115.364 255.568-257.675 255.568zM847.192 51.526c9.724-9.813 9.674-25.55-0.112-35.3-9.787-9.763-25.664-9.888-35.601-0.288l-74.963 74.75-78.486-78.213c-7.025-7.024-17.313-9.775-26.949-7.213-9.638 2.562-17.163 10.050-19.702 19.626-2.537 9.577 0.3 19.763 7.425 26.699l78.475 78.181-75.036 74.643c-6.562 6.3-9.189 15.606-6.889 24.369 2.301 8.756 9.189 15.606 18.013 17.919 8.825 2.319 18.213-0.265 24.586-6.751l74.963-74.637 78.489 78.187c10.899 10.618 28.412 10.512 39.187-0.233 10.787-10.745 10.799-28.105 0.038-38.868l-78.477-78.193 75.037-74.681z" />
<glyph unicode="&#xe67c;" glyph-name="shangsheng" d="M960 703.999h-320c-17.673 0-32-14.327-32-32s14.327-32 32-32v0h242.56l-338.56-338.56-169.6 168.96c-5.8 5.846-13.837 9.466-22.72 9.466s-16.92-3.619-22.718-9.463l-320.002-320.002c-5.815-5.815-9.411-13.847-9.411-22.72 0-17.745 14.386-32.131 32.131-32.131 8.873 0 16.905 3.596 22.72 9.411l297.6 297.6 169.6-169.6c5.8-5.846 13.837-9.466 22.72-9.466s16.92 3.619 22.718 9.463l0.002 0.002 360.96 361.6v-242.56c0-17.673 14.327-32 32-32s32 14.327 32 32v0 320c0 17.673-14.327 32-32 32v0z" />
<glyph unicode="&#xe67d;" glyph-name="xiajiang" d="M960 447.999c-17.673 0-32-14.327-32-32v0-242.56l-361.6 360.96c-5.8 5.846-13.837 9.466-22.72 9.466s-16.92-3.619-22.718-9.463l-168.962-168.962-297.6 296.96c-5.815 5.815-13.847 9.411-22.72 9.411-17.745 0-32.131-14.386-32.131-32.131 0-8.873 3.596-16.905 9.411-22.72l320-320c5.8-5.846 13.837-9.466 22.72-9.466s16.92 3.619 22.718 9.463l169.602 169.602 339.84-338.56h-243.84c-17.673 0-32-14.327-32-32s14.327-32 32-32v0h320c17.673 0 32 14.327 32 32v0 320c0 17.673-14.327 32-32 32v0z" />
<glyph unicode="&#xe6a2;" glyph-name="wj-edit" d="M294.36 573.177h435.508c24.462 0 44.58 20.004 44.58 44.58 0 24.462-20.004 44.58-44.58 44.58h-435.508c-24.462 0-44.58-20.004-44.58-44.58 0-24.462 20.004-44.58 44.58-44.58zM249.78 410.861c0-24.462 20.004-44.58 44.58-44.58h435.508c24.462 0 44.58 20.004 44.58 44.58 0 24.462-20.004 44.58-44.58 44.58h-435.508c-24.576 0-44.58-20.004-44.58-44.58zM965.226 839.053c0 31.548-25.604 57.154-57.154 57.154h-790.658c-31.548 0-57.154-25.604-57.154-57.154v-908.394c0-31.548 25.604-57.154 57.154-57.154h351.264c23.776 0.342 42.864 19.66 42.864 43.436s-19.090 43.094-42.864 43.436h-321.544v848.954h731.218v-478.716c0-24.004 19.432-43.436 43.436-43.436s43.436 19.432 43.436 43.436v508.436zM576.926-121.921l121.050 30.292-78.186 83.216zM639.908 9.187l75.67-80.7 191.578 199.236-78.186 80.586zM864.292 243.631l-15.088-17.604 78.186-83.216 15.088 15.088c25.262 27.776 7.544 47.894-12.574 70.642-22.746 22.632-42.864 40.35-65.612 15.088z" />
<glyph unicode="&#xe6d3;" glyph-name="no-data" horiz-adv-x="1194" d="M523.378 636.207c0 9.481-7.585 18.962-18.962 18.962s-18.962-7.585-18.962-18.962c0-41.719-34.133-73.956-75.852-73.956s-75.852 32.237-75.852 73.956c0 9.481-7.585 18.962-18.962 18.962-9.481 0-18.962-7.585-18.962-18.962 0-60.681 51.2-111.881 111.881-111.881 64.474 1.896 115.674 51.2 115.674 111.881zM733.867 283.496c-39.822 24.652-83.437 39.822-134.637 39.822s-94.815-15.17-134.637-39.822c-24.652-15.17-39.822-30.341-49.304-41.719-7.585-7.585-5.689-18.962 1.896-26.548s18.962-5.689 26.548 1.896l9.481 9.481c7.585 7.585 18.962 17.065 30.341 22.756 34.133 20.859 72.059 34.133 113.778 34.133s81.541-13.274 113.778-34.133c11.378-7.585 22.756-15.17 30.341-22.756 5.689-3.793 7.585-7.585 9.481-9.481 5.689-7.585 18.962-9.481 26.548-1.896 7.585 5.689 9.481 18.962 1.896 26.548-5.689 11.378-22.756 26.548-45.511 41.719zM879.881 655.17c-9.481 0-18.962-7.585-18.962-18.962 0-41.719-34.133-73.956-75.852-73.956s-75.852 32.237-75.852 73.956c0 9.481-7.585 18.962-18.962 18.962s-18.962-7.585-18.962-18.962c0-60.681 51.2-109.985 111.881-111.881 62.578 0 111.881 49.304 111.881 111.881 3.793 11.378-3.793 18.962-15.17 18.962zM1118.815 896h-1039.17c-41.719 0-75.852-34.133-75.852-73.956v-705.422c0-39.822 32.237-73.956 73.956-73.956 3.793-11.378 9.481-20.859 18.962-30.341 1.896-1.896 5.689-3.793 7.585-5.689 94.815-24.652 117.57-54.994 123.259-70.163 5.689-18.962-5.689-32.237-5.689-32.237-5.689-7.585-5.689-18.962 3.793-24.652s18.962-5.689 24.652 3.793c9.481 11.378 20.859 36.030 11.378 64.474-13.274 39.822-60.681 70.163-144.119 92.918-7.585 7.585-9.481 15.17-9.481 18.962 0 7.585 3.793 15.17 13.274 20.859 1.896 1.896 5.689 3.793 7.585 5.689 0 0 1.896 0 1.896 1.896 3.793 1.896 7.585 3.793 11.378 3.793 5.689 1.896 17.065 3.793 36.030 3.793 32.237 0 68.267-5.689 109.985-18.962 7.585-3.793 13.274-5.689 20.859-9.481 1.896-1.896 3.793-1.896 5.689-3.793l28.444-17.065c138.43-96.711 123.259-144.119 123.259-144.119-3.793-7.585 0-18.962 7.585-22.756 1.896-1.896 5.689-1.896 7.585-1.896 7.585 0 13.274 3.793 17.065 9.481 5.689 9.481 24.652 64.474-91.023 155.496h318.578c-113.778-92.918-94.815-146.015-89.126-155.496 3.793-5.689 9.481-9.481 15.17-9.481 3.793 0 5.689 0 7.585 1.896 7.585 5.689 11.378 15.17 7.585 24.652 0 0-15.17 47.407 123.259 144.119 1.896 0 1.896 0 1.896 1.896 7.585 5.689 17.065 11.378 26.548 17.065 1.896 1.896 3.793 1.896 5.689 3.793 7.585 3.793 13.274 5.689 20.859 9.481 41.719 11.378 77.748 18.962 109.985 18.962 17.065 0 28.444-1.896 36.030-3.793 3.793-1.896 7.585-1.896 11.378-3.793 0 0 1.896 0 1.896-1.896 3.793-1.896 5.689-3.793 7.585-5.689 7.585-5.689 13.274-13.274 13.274-20.859 0-5.689-1.896-11.378-7.585-18.962-81.541-20.859-128.947-53.094-144.119-92.918-9.481-28.444 1.896-54.994 11.378-64.474 7.585-7.585 17.065-9.481 24.652-3.793s9.481 17.065 3.793 24.652c0 1.896-11.378 15.17-5.689 32.237 5.689 15.17 28.444 45.511 123.259 70.163 3.793 0 5.689 1.896 7.585 5.689 9.481 9.481 15.17 20.859 18.962 30.341h56.891c41.719 0 75.852 34.133 75.852 73.956v705.422c3.793 36.030-30.341 70.163-72.059 70.163zM1156.741 116.622c0-20.859-17.065-37.926-39.822-37.926h-56.891l-5.689 11.378c-1.896 1.896-3.793 5.689-5.689 7.585 0 1.896-1.896 1.896-1.896 1.896l-9.481 9.481c-1.896 0-1.896 1.896-3.793 1.896-1.896 1.896-5.689 3.793-7.585 5.689-1.896 0-1.896 1.896-3.793 1.896h-1.896c-9.481 5.689-24.652 9.481-39.822 13.274h-9.481c-7.585 0-13.274 1.896-20.859 1.896h-5.689c-7.585 0-17.065 0-26.548-1.896h-5.689c-20.859-1.896-41.719-7.585-62.578-15.17-1.896 0-3.793-1.896-5.689-1.896-7.585-3.793-24.652-9.481-32.237-15.17l-3.793-1.896-28.444-17.065-3.793-1.896h-415.289c-11.378 7.585-24.652 15.17-36.030 20.859s-22.756 11.378-32.237 15.17c-36.030 13.274-70.163 18.962-100.504 18.962h-3.793c-7.585 0-17.065 0-24.652-1.896h-7.585c-18.962-3.793-28.444-7.585-39.822-13.274h-1.896c-1.896 0-1.896-1.896-3.793-1.896-3.793-1.896-5.689-3.793-7.585-5.689-1.896 0-1.896-1.896-3.793-1.896-3.793-1.896-7.585-5.689-9.481-7.585l-1.896-1.896c-5.689-5.689-9.481-13.274-11.378-18.962-20.859 0-37.926 18.962-37.926 37.926v705.422c0 20.859 17.065 37.926 39.822 37.926h1039.17c20.859 0 39.822-17.065 39.822-37.926v-707.319z" />
<glyph unicode="&#xe6e2;" glyph-name="shenhetongguo" d="M440.744-47.629h-269.842c-42.638 0-77.682 35.044-77.682 77.682v712.568c0 42.638 35.044 77.682 77.682 77.682h615.612c42.638 0 77.682-35.044 77.682-77.682v-196.832c0-19.858 16.354-36.212 36.212-36.212s36.212 16.354 36.212 36.212v196.832c0 82.938-67.752 150.106-150.69 150.69h-615.028c-82.938 0-150.106-67.752-150.69-150.69v-712.568c0-82.938 67.752-150.106 150.69-150.69h269.842c19.858 0 36.212 16.354 36.212 36.212 0 20.442-16.354 36.796-36.212 36.796zM795.86 646.249c0 19.858-16.354 36.212-36.212 36.212h-554.868c-19.858 0-36.212-16.354-36.212-36.212s16.354-36.212 36.212-36.212h554.868c19.858 0 36.212 16.354 36.212 36.212zM439.576 291.133c0 19.858-16.354 36.212-36.212 36.212h-202.088c-19.858 0-36.212-16.354-36.212-36.212s16.354-36.212 36.212-36.212h202.088c19.858 0 36.212 16.354 36.212 36.212zM202.442 149.205c-19.858 0-36.212-16.354-36.212-36.212s16.354-36.212 36.212-36.212h162.372c19.858 0 36.212 16.354 36.212 36.212 0.584 19.858-15.77 36.212-35.628 36.212h-162.956zM556.974 462.851c0 19.858-16.354 36.212-36.212 36.212h-321.24c-19.858 0-36.212-16.354-36.212-36.212s16.354-36.212 36.212-36.212h321.24c19.858 0 36.212 16.354 36.212 36.212zM1055.188 191.257c-2.92 22.778-8.762 45.558-16.938 66.584-5.256 14.018-12.266 28.036-19.858 41.47-9.93 16.354-30.956 21.61-47.31 12.266s-22.194-30.372-12.85-47.31c5.84-9.93 11.098-20.442 15.186-31.54 6.424-16.354 10.514-33.292 12.85-50.814 1.168-9.93 1.752-19.858 1.752-30.372 0-124.408-101.044-225.452-225.452-225.452s-225.452 101.044-225.452 225.452 101.044 225.452 225.452 225.452c39.132 0 78.266-10.514 112.142-29.788 8.178-4.672 17.522-5.84 26.284-3.504s16.354 8.178 21.026 16.354c4.672 8.178 5.84 17.522 3.504 26.284s-8.178 16.354-16.354 21.026c-44.974 25.7-95.788 39.132-147.186 39.132-162.956 0-295.54-132.584-295.54-295.54s132.584-294.956 295.54-294.956 294.956 132.584 294.956 295.54c0.584 13.434 0 26.284-1.752 39.716zM842 228.637l-114.478-114.478-44.974 44.974c-6.424 6.424-15.186 9.93-24.532 9.93s-18.106-3.504-24.532-9.93-10.514-15.186-10.514-24.532 3.504-18.106 9.93-24.532l69.504-69.504c6.424-6.424 15.186-10.514 24.532-10.514s18.106 3.504 24.532 10.514l139.010 139.010c13.434 13.434 13.434 35.628 0 49.062-12.85 13.434-35.044 13.434-48.478 0z" />
<glyph unicode="&#xe72c;" glyph-name="caogaoxiang" d="M960-127.999h-890.368c-38.4 0-69.632 31.232-69.632 69.632v376.832c0 1.024 0 2.048 0.512 2.56l126.464 219.136c0.512 1.024 0.512 1.536 0.512 2.56v283.648c0 18.432 7.168 36.352 20.48 49.152 12.8 12.8 30.72 20.48 49.152 20.48h504.32c1.536 0 3.072-0.512 4.096-1.536l188.928-188.928c1.024-1.024 1.536-2.56 1.536-4.096v-187.904c0-1.024 0.512-2.048 1.024-3.072l125.952-189.44c0.512-1.024 1.024-2.048 1.024-3.072v-382.464c0-34.816-28.672-63.488-64-63.488zM117.76 398.849l-48.128-70.656c-1.024-1.536-1.024-4.096-0.512-5.632 1.024-2.048 3.072-3.072 4.608-3.072h48.128c1.536 0 3.072 0.512 4.096 1.536s1.536 2.56 1.536 4.096v70.656c0 2.56-1.536 4.608-4.096 5.12-1.536 1.024-4.096 0-5.632-2.048zM704 773.633c0-38.4 31.232-69.632 69.632-69.632 2.048 0 4.096 1.536 5.12 3.584s0.512 4.608-1.024 6.144l-64 64c-1.536 1.536-4.096 2.048-6.144 1.024s-3.584-3.072-3.584-5.12zM826.368 640.001h-117.248c-18.432 0-36.352 7.168-49.152 20.48-12.8 12.8-20.48 30.72-20.48 49.152v116.736c0 3.072-2.56 5.632-5.632 5.632h-372.224c-18.432 0-36.352-7.168-49.152-20.48-12.8-12.8-20.48-30.72-20.48-49.152v-437.248c0-1.536 0.512-3.072 1.536-4.096s2.56-1.536 4.096-1.536h117.248c3.072 0 5.632-2.56 5.632-5.12 2.56-103.424 87.552-186.368 191.488-186.368s188.928 82.944 192 186.88c0 3.072 2.56 5.12 5.632 5.12h117.248c1.536 0 3.072 0.512 4.096 1.536s1.536 2.56 1.536 4.096v308.736c-0.512 3.072-3.072 5.632-6.144 5.632zM896 370.689v-45.056c0-1.536 0.512-3.072 1.536-4.096s2.56-1.536 4.096-1.536h45.056c2.048 0 4.096 1.536 5.12 3.584s0.512 4.608-1.024 6.144l-45.056 45.056c-1.536 1.536-4.096 2.048-6.144 1.024s-3.584-3.072-3.584-5.12zM325.632 512.001h373.248c1.536 0 3.072-0.512 4.096-1.536s1.536-2.56 1.536-4.096v-53.248c0-1.536-0.512-3.072-1.536-4.096s-2.56-1.536-4.096-1.536h-373.248c-1.536 0-3.072 0.512-4.096 1.536s-1.536 2.56-1.536 4.096v53.248c0 1.536 0.512 3.072 1.536 4.096s2.56 1.536 4.096 1.536zM325.632 640.001h245.248c1.536 0 3.072-0.512 4.096-1.536s1.536-2.56 1.536-4.096v-53.248c0-1.536-0.512-3.072-1.536-4.096s-2.56-1.536-4.096-1.536h-245.248c-1.536 0-3.072 0.512-4.096 1.536s-1.536 2.56-1.536 4.096v53.248c0 1.536 0.512 3.072 1.536 4.096s2.56 1.536 4.096 1.536zM325.632 640.001" />
<glyph unicode="&#xe740;" glyph-name="qingkong" d="M523.888 396.2c-73.143-109.714-190.169-175.543-358.4-212.114l14.629-14.629c14.629-14.629 36.571-29.257 58.514-43.888 51.2 0 102.4 21.943 146.286 80.459 14.629 14.629 36.571 14.629 51.2 7.314s14.629-36.571 7.314-51.2c-36.571-43.888-73.143-73.143-117.030-87.771 21.943-14.629 43.888-21.943 65.829-36.571 65.829 29.257 109.714 80.459 146.286 146.286 7.314 14.629 29.257 21.943 51.2 14.629 14.629-7.314 21.943-29.257 14.629-51.2-29.257-65.829-73.143-109.714-124.343-146.286 51.2-21.943 87.771-29.257 102.4-21.943l14.629 7.314c21.943 7.314 102.4 168.229 138.971 329.143-43.888 14.629-73.143 21.943-95.086 29.257l-117.030 51.2zM809.143 344.998v-14.629c-36.571-182.857-131.657-373.029-190.169-409.6-58.514-43.888-182.857 0-329.143 87.771-65.829 36.571-117.030 73.143-153.601 109.714-51.2 51.2-73.143 95.086-29.257 131.657l7.314 7.314h7.314c175.543 29.257 292.571 87.771 351.087 190.169l29.257 80.459c14.629 36.571 51.2 51.2 87.771 36.571l190.169-73.143c36.571-14.629 58.514-58.514 43.888-95.086l-14.629-51.2zM670.169 418.141l73.143-29.257 14.629 36.571-190.169 73.143-14.629-36.571c21.943-7.314 65.829-29.257 117.030-43.888zM823.771 864.315c36.571-14.629 51.2-51.2 43.888-87.771l-73.143-248.686-168.229 65.829 109.714 234.057c14.629 36.571 58.514 51.2 87.771 36.571zM728.686 637.572l21.943-7.314 43.888 153.601-65.829-146.286z" />
<glyph unicode="&#xe900;" glyph-name="waring" d="M604.231 582.678c0 18.064-14.621 35.156-32.814 35.156h-393.004c-18.064 0-32.814-17.089-32.814-35.156s14.75-35.219 32.814-35.219h393.134c18.064 0.066 32.684 17.155 32.684 35.219zM178.413 413.273c-18.064 0-32.814-17.481-32.814-35.738 0-18.064 14.75-35.608 32.814-35.608h262.198c18.064 0 32.814 17.545 32.814 35.608s-14.687 35.738-32.814 35.738h-262.198zM374.98 206.699h-196.567c-18.064 0-32.814-17.481-32.814-35.608 0-18.064 14.75-35.608 32.814-35.608h196.63c18 0 32.751 17.545 32.751 35.608 0 18.193-14.75 35.608-32.814 35.608zM321.046-9.102h-211.317c-32.947 0-59.783 25.732-59.783 57.118v671.902c0 31.516 26.836 57.118 59.783 57.118h601.201c32.947 0 59.716-25.602 59.716-57.118v-139.382c-0.024-11.7 6.196-22.523 16.32-28.395s22.605-5.894 32.751-0.066c10.145 5.831 16.409 16.629 16.43 28.332v139.515c0 67.644-56.21 122.749-125.218 122.749h-601.201c-69.204 0-125.284-54.973-125.284-122.749v-671.835c0-67.58 56.077-122.749 125.284-122.749h211.317c17.539 0.783 31.357 15.226 31.357 32.782s-13.817 32.003-31.357 32.782c0.066 0 0.066 0 0 0zM737.832 95.973h-35.415c-2.842-0.127-5.486-1.507-7.212-3.769-1.994-2.589-3.069-5.765-3.054-9.032v-21.118c0-3.313 0.975-6.563 3.054-9.032 1.949-2.405 4.548-3.769 7.212-3.769h35.415c2.842 0.127 5.486 1.507 7.212 3.769 1.994 2.589 3.069 5.765 3.054 9.032v21.118c0.015 3.267-1.060 6.446-3.054 9.032-1.729 2.262-4.37 3.642-7.212 3.769zM695.334 131.581c2.019-1.637 4.548-2.512 7.149-2.468l35.156-0.13c2.598 0 5.133 0.845 7.212 2.405 1.852 1.501 2.966 3.727 3.054 6.108v153.291c-0.066 2.351-1.187 4.547-3.054 5.978-2.036 1.646-4.598 2.498-7.212 2.405h-35.285c-2.604 0.011-5.135-0.834-7.212-2.405-1.805-1.466-2.872-3.653-2.924-5.978v-93.638l0.196-59.653c0.111-2.292 1.171-4.433 2.924-5.915zM1013.742 68.292l-225.678 390.925c-27.551 47.76-104.423 47.76-131.977 0l-225.808-390.925c-13.842-23.782-13.712-52.441 0.13-76.223 13.712-23.849 38.339-38.080 66.15-38.080h451.16c27.551 0 52.311 14.231 66.15 38.21 13.799 23.502 13.748 52.641-0.13 76.093zM957.076 24.883c-1.895-3.368-5.493-5.417-9.358-5.329h-451.29c-3.859-0.14-7.464 1.926-9.291 5.329-1.983 3.298-1.983 7.424 0 10.722l225.612 390.795c5.459 9.358 13.127 9.358 18.586 0l225.612-390.925c2.794-4.548 1.234-8.643 0.13-10.592z" />
<glyph unicode="&#xe901;" glyph-name="audit" d="M967.934-52.030c17.358-17.377 17.358-45.554 0.001-62.94-8.683-8.687-20.051-13.030-31.429-13.030s-22.75 4.348-31.429 13.030l-137.713 137.874c-48.644-35.852-108.678-57.070-173.579-57.070-161.798 0-293.436 131.796-293.436 293.794s131.634 293.793 293.436 293.793c161.798 0 293.439-131.797 293.439-293.793 0-64.976-21.195-125.084-56.998-173.787l137.712-137.874zM593.78 38.154c121.973 0 221.212 99.357 221.213 221.478s-99.236 221.477-221.213 221.477c-121.974 0-221.204-99.357-221.204-221.477s99.23-221.478 221.204-221.478zM213.908 247.469c0-207.363 167.891-375.468 374.997-375.468h-477.149c-37.724 0-68.304 30.645-68.304 68.381v887.244c0 37.763 30.581 68.379 68.304 68.379h715.662c37.724 0 68.304-30.645 68.304-68.38v-364.222c-67.867 96.494-179.988 159.534-306.817 159.534-207.106 0-374.997-168.1-374.997-375.468zM179.82 759.468c0-18.85 15.263-34.132 34.092-34.132h511.363c18.829 0 34.092 15.282 34.092 34.132s-15.264 34.132-34.092 34.132h-511.362c-18.829 0-34.092-15.281-34.092-34.132z" />
<glyph unicode="&#xe902;" glyph-name="audited" d="M751.539 864c45.102 0 77.314-32.216 77.314-77.314v-425.235c-32.216 0-64.429-6.441-96.644-19.33s-57.987-32.216-83.759-57.987c-19.33-19.33-38.657-51.543-51.543-90.2-12.886-32.216-19.33-64.429-19.33-103.086s6.441-70.873 19.33-103.086c12.886-32.216 32.216-57.987 57.987-83.759h-579.867c-45.102 0-77.314 38.657-77.314 77.314v805.368c0 45.102 38.657 77.314 77.314 77.314h676.511zM184.56 670.711c-19.33 0-38.657-19.33-38.657-38.657s19.33-38.657 38.657-38.657h193.289c19.33 0 38.657 19.33 38.657 38.657s-19.33 38.657-38.657 38.657h-193.289zM455.165 148.832c19.33 0 38.657 19.33 38.657 38.657s-19.33 38.657-38.657 38.657h-270.603c-19.33 0-38.657-19.33-38.657-38.657s19.33-38.657 38.657-38.657h270.603zM642.009 374.336c25.771 0 38.657 12.886 38.657 38.657 0 19.33-19.33 38.657-38.657 38.657h-457.451c-19.33 0-38.657-19.33-38.657-38.657 0-25.771 19.33-38.657 38.657-38.657h457.451zM835.298 290.578c109.53 0 193.289-83.759 186.845-186.845 0-103.086-83.759-186.845-186.845-186.845s-186.845 83.759-186.845 186.845c0 103.086 83.759 186.845 186.845 186.845zM957.714 123.060c12.886 12.886 12.886 32.216 0 38.657-6.441 12.886-25.771 12.886-38.657 0l-109.53-103.086-51.543 51.543c-6.441 12.886-25.771 12.886-38.657 0-12.886-6.441-12.886-25.771 0-38.657l70.873-70.873c6.441-6.441 12.886-6.441 19.33-6.441s12.886 0 19.33 6.441l128.86 122.416z" />
<glyph unicode="&#xe903;" glyph-name="calendar" d="M588.126 359.618c-28.53 0-51.745 21.838-51.745 48.763s23.214 48.763 51.745 48.763h140.32c28.53 0 51.745-21.838 51.745-48.763s-23.214-48.763-51.745-48.763h-140.32zM872.406 785.43c83.551 0 151.469-58.911 151.59-131.455v-650.524c0-72.544-68.043-131.455-151.59-131.455h-720.941c-83.551 0-151.469 59.037-151.469 131.455v650.524c0 72.544 67.917 131.455 151.469 131.455h106.815v68.79c0 21.637 21.389 39.15 47.904 39.15s47.904-17.509 47.904-39.15v-68.79h312.065v71.42c0 21.637 21.515 39.15 47.904 39.15 26.515 0 47.904-17.509 47.904-39.15v-71.42h110.444zM919.060 3.455v650.524c0 12.756-20.387 27.518-46.654 27.518h-110.444v-49.028c0-21.637-21.389-39.15-47.904-39.15-26.389 0-47.904 17.509-47.904 39.15v49.028h-312.065v-51.78c0-21.637-21.389-39.15-47.904-39.15s-47.904 17.509-47.904 39.15v51.78h-106.815c-26.268 0-46.654-14.883-46.654-27.518v-650.524c0-12.756 20.387-27.518 46.654-27.518h720.941c26.268 0 46.654 14.757 46.654 27.518zM684.994 262.095c25.602 0 46.318-21.852 46.434-48.789 0-26.941-20.832-48.789-46.434-48.789h-443.51c-25.602 0-46.434 21.852-46.434 48.789s20.832 48.789 46.434 48.789h443.51z" />
<glyph unicode="&#xe904;" glyph-name="check" d="M395.115 9.355c-19.469 0-38.861 7.864-53.715 23.507l-303.892 321.422c-29.627 31.371-29.627 82.282 0 113.653 29.705 31.371 77.8 31.371 107.427 0l250.177-264.595 478.037 505.603c29.627 31.455 77.722 31.455 107.427 0 29.627-31.371 29.627-82.198 0-113.572l-531.752-562.51c-14.851-15.647-34.32-23.507-53.715-23.507z" />
<glyph unicode="&#xe905;" glyph-name="plan-close" d="M511.999-128c-282.767 0-511.999 229.234-511.999 512.002s229.232 511.998 511.999 511.998c282.769 0 512.001-229.231 512.001-511.998 0-282.769-229.232-512.002-512.001-512.002zM511.999 831.999c-247.421 0-447.999-200.576-447.999-447.998s200.576-447.999 447.999-447.999c247.424 0 448.001 200.576 448.001 447.999s-200.578 447.998-448.001 447.998zM557.435 383.822l135.584-135.582c12.497-12.498 12.497-32.756 0-45.254s-32.756-12.498-45.253 0l-135.585 135.585-136.508-136.508c-12.596-12.591-33.014-12.591-45.612 0-12.594 12.594-12.594 33.012 0 45.611l136.51 136.51-135.585 135.585c-12.498 12.497-12.498 32.756 0 45.251 12.497 12.5 32.755 12.5 45.253 0l135.587-135.585 137.516 137.516c12.593 12.596 33.014 12.596 45.612 0 12.593-12.593 12.593-33.014 0-45.605l-137.518-137.519z" />
<glyph unicode="&#xe906;" glyph-name="plan-command" d="M53.335 711.498l158.533-807.498h118.9l-96.882 419.193c0 0 110.090 97.077 242.202 61.775 0 0 74.863-22.063 118.9-61.775 0 0 83.67-52.951 158.533 22.063 0 0 79.265 61.775 154.128 172.091 0 0 61.651 79.426 88.075 119.14 0 0 17.614 26.475 17.614 30.887 0 0-246.604-123.552-528.439 110.313 0 0-66.056 123.552-193.76 75.014l-237.798-141.204z" />
<glyph unicode="&#xe907;" glyph-name="plan-delete" d="M805.985 624.262l1.301-630.453c0-33.090-13.659-50.787-46.848-50.787l-481.565 1.334c-33.156 0-47.781 15.125-47.781 48.148v631.757h-74.628v-632.059c0-66.316 53.958-120.208 120.241-120.208h480.83c66.316 0 120.241 53.925 120.241 120.208v632.059h-71.791zM331.733 488.996v-447.571c0-2.907 0.434-5.71 1.169-8.382 22.003 0 44.044 0.033 66.081 0.198 0.702 2.572 1.135 5.376 1.135 8.18v447.373c-22.805 0.099-45.58 0.165-68.384 0.198zM633.554 487.394v-446.002c0-2.304 0.268-4.575 0.735-6.78 22.272 0.132 44.577 0.165 66.815 0.235 0.467 2.139 0.702 4.274 0.702 6.611v445.734c-22.738 0.033-45.51 0.099-68.252 0.198zM1002.86 745.407h-267.027v75.329c1.169 60.638-48.784 75.263-98.638 75.263h-239.948c-61.939 0-97.267-23.275-97.267-73.158l-0.268-77.435h-271.267v-73.558h974.382v73.558h0.033zM667.478 745.407h-300.55v52.69c0 16.694 11.788 31.219 28.482 31.219l240.448-1.301c16.694 0 31.389-11.987 31.389-28.684l0.235-53.925zM485.067 487.361v-445.936c0-2.304 0.268-4.608 0.735-6.78 22.070 0.099 44.143 0.165 66.213 0.165 0.467 2.172 0.702 4.274 0.702 6.611v445.734c-22.573 0.033-45.109 0.099-67.683 0.198h0.033z" />
<glyph unicode="&#xe908;" glyph-name="plan-drafts" d="M960-128h-890.513c-38.378 0-69.487 31.109-69.487 69.487v377.012c0 0.964 0.255 1.916 0.737 2.75l126.526 219.173c0.483 0.835 0.737 1.786 0.737 2.75v283.339c0 18.432 7.324 36.109 20.355 49.139s30.714 20.352 49.146 20.349h504.225c1.458 0 2.859-0.579 3.888-1.614l188.751-188.75c1.034-1.028 1.613-2.429 1.613-3.887v-188.090c0-1.086 0.321-2.146 0.926-3.051l126.175-189.227c0.604-0.901 0.926-1.965 0.926-3.051v-382.337c0-35.346-28.654-64-64-64zM117.973 399.012l-48.112-70.427c-1.152-1.681-1.278-3.861-0.324-5.664s2.826-2.928 4.862-2.925h48.099c1.456 0 2.85 0.578 3.882 1.61s1.605 2.427 1.605 3.882v70.436c-0.005 2.401-1.573 4.522-3.87 5.229s-4.784-0.159-6.143-2.141zM704 773.501c0-38.384 31.117-69.501 69.501-69.501 2.224-0.005 4.234 1.33 5.085 3.387s0.381 4.419-1.198 5.988l-64.014 64c-1.568 1.573-3.932 2.048-5.984 1.199s-3.392-2.851-3.391-5.074zM826.499 640h-117.012c-18.43 0-36.106 7.323-49.135 20.352s-20.352 30.706-20.352 49.136v117.025c0 1.455-0.578 2.85-1.605 3.882s-2.426 1.605-3.882 1.605h-373.025c-38.378 0-69.487-31.109-69.487-69.487v-437.025c0-1.457 0.579-2.858 1.613-3.886s2.431-1.605 3.888-1.602h117.101c2.965 0.001 5.393-2.362 5.474-5.326 2.907-103.907 87.978-186.635 191.924-186.635s189.021 82.724 191.924 186.635c0.081 2.964 2.51 5.327 5.474 5.326h117.101c1.456 0 2.85 0.577 3.882 1.605s1.61 2.427 1.61 3.882v309.025c0 3.025-2.449 5.482-5.474 5.487h-0.014zM896 370.737v-45.25c0-1.456 0.577-2.85 1.605-3.882s2.427-1.61 3.882-1.61h45.249c2.224-0.005 4.234 1.33 5.086 3.387s0.381 4.419-1.198 5.988l-45.25 45.25c-1.569 1.578-3.936 2.049-5.988 1.198s-3.392-2.861-3.387-5.086v0.001zM325.487 511.987h373.025c1.456 0 2.851-0.577 3.883-1.605s1.61-2.427 1.605-3.883v-53.002c0-1.456-0.578-2.85-1.61-3.882s-2.427-1.605-3.882-1.605h-373.024c-1.456 0-2.85 0.577-3.882 1.605s-1.61 2.427-1.61 3.882v53.012c0 3.029 2.458 5.487 5.487 5.487v-0.013zM325.487 639.987h245.002c1.456 0 2.851-0.577 3.883-1.605s1.61-2.427 1.605-3.883v-53.012c0-1.456-0.578-2.85-1.61-3.882s-2.427-1.605-3.882-1.605h-245.002c-3.029 0-5.487 2.458-5.487 5.487v53.025c0 1.456 0.577 2.85 1.605 3.882s2.427 1.61 3.882 1.61v-0.013z" />
<glyph unicode="&#xe909;" glyph-name="plan-edit" d="M678.853 858.076h-526.942c-84.138 0-151.915-68.014-151.915-151.915v-682.25c0-84.138 68.014-151.915 151.915-151.915h682.25c84.138 0 151.915 68.014 151.915 151.915v519.211l-75.853-75.853v-443.359c0-42.109-33.918-76.062-76.062-76.062h-682.25c-42.109 0-76.062 33.918-76.062 76.062v682.25c0 42.109 33.918 76.062 76.062 76.062h451.090l75.853 75.853zM320.678 197.147l230.096 65.327-164.352 163.347-65.744-228.674zM935.235 644.589l-164.354 163.348-361.584-359.359 164.352-163.332 361.586 359.343zM1011.626 781.803l-102.725 102.085c-17.021 16.916-45.532 15.997-63.685-2.043l-49.314-48.994 164.355-163.347 49.311 49.009c18.156 18.037 19.075 46.368 2.061 63.285z" />
<glyph unicode="&#xe90a;" glyph-name="plan-equipment" d="M234.709 411.343c-125.713 0-227.937 102.227-227.937 227.937s102.227 227.937 227.937 227.937h556.852c125.713 0 227.937-102.227 227.937-227.937s-102.227-227.937-227.937-227.937h-556.852zM234.709 732.997c-51.625 0-93.717-42.093-93.717-93.717s42.093-93.717 93.717-93.717h556.852c51.625 0 93.717 42.093 93.717 93.717s-42.093 93.717-93.717 93.717h-556.852zM238.225 636.898c0 28.699 15.309 55.216 40.164 69.567s55.473 14.347 80.328 0c24.855-14.347 40.164-40.869 40.164-69.567s-15.309-55.216-40.164-69.567c-24.855-14.347-55.473-14.347-80.328 0s-40.164 40.869-40.164 69.567zM791.561 358.927c125.713 0 227.937-102.227 227.937-227.937s-102.227-227.937-227.937-227.937h-556.852c-125.713 0-227.937 102.227-227.937 227.937s102.227 227.937 227.937 227.937h556.852zM728.476 50.659c44.363 0 80.328 35.965 80.328 80.328s-35.965 80.328-80.328 80.328c-44.363 0-80.328-35.965-80.328-80.328s35.965-80.328 80.328-80.328z" />
<glyph unicode="&#xe90b;" glyph-name="all" d="M631.779 306.861h269.325c29.912 0 54.196-26.811 54.196-59.853v-297.461c0-33.041-24.284-59.853-54.196-59.853h-269.325c-29.942 0-54.196 26.811-54.196 59.853v297.461c0 33.041 24.254 59.853 54.196 59.853zM631.779-50.453h269.325v297.431h-269.325v-297.431zM631.779 846.564h269.325c29.912 0 54.196-26.811 54.196-59.883v-297.431c0-33.071-24.284-59.853-54.196-59.853h-269.325c-29.942 0-54.196 26.781-54.196 59.853v297.431c0 33.071 24.254 59.883 54.196 59.883zM631.779 489.249h269.325v297.431h-269.325v-297.431zM143.958 306.861h269.325c29.912 0 54.196-26.811 54.196-59.853v-297.461c0-33.041-24.284-59.853-54.196-59.853h-269.325c-29.942 0-54.196 26.811-54.196 59.853v297.461c0 33.041 24.254 59.853 54.196 59.853zM143.958-50.453h269.325v297.431h-269.325v-297.431zM143.958 846.564h269.325c29.912 0 54.196-26.811 54.196-59.883v-297.431c0-33.071-24.284-59.853-54.196-59.853h-269.325c-29.942 0-54.196 26.781-54.196 59.853v297.431c0 33.071 24.254 59.883 54.196 59.883zM143.958 489.249h269.325v297.431h-269.325v-297.431z" />
<glyph unicode="&#xe90c;" glyph-name="plan-expert" d="M797.646 225.566c136.398-67.995 226.237-188.811 226.237-353.566h-1024c0 164.209 88.27 285.025 223.094 353.566 75.23-69.020 176.539-110.909 287.333-110.909s212.102 41.889 287.333 110.909zM177.509 375.084v260.494c-3.685 0-7.302 0-10.991-0.546 59.052 128.128 190.737 217.58 343.791 217.58s284.739-89.452 343.791-217.58c-3.685 0.546-7.302 0.546-10.991 0.546v-260.973c73.661 0 133.254 58.562 133.254 130.178 0 48.655-27.715 91.569-67.924 114.050-57.478 161.613-213.676 277.167-397.585 277.167-184.454 0-340.652-116.1-397.585-277.167-40.754-22.482-67.924-64.849-67.924-114.050-1.091-71.615 58.502-129.699 132.163-129.699zM510.318 765.774c158.854 0 287.878-126.557 288.428-282.358 0-155.872-129.091-282.429-288.428-282.429s-288.428 126.557-288.428 282.429c0 155.805 129.091 282.358 288.428 282.358z" />
<glyph unicode="&#xe90d;" glyph-name="qingwu-1" d="M52.831 704.374c0 11.759 0.52 12.297 12.838 12.838 19.236 1.061 39.035 1.061 57.751 1.061h119.281v-94.145c0-20.318 12.838-29.975 25.136-29.975 6.92 0 13.376 2.14 17.656 6.92 3.738 3.738 8.559 11.237 8.559 23.537v93.662h444.453v-96.863c0-13.376 6.921-22.996 19.258-26.215 12.337-3.2 22.996 1.62 28.877 12.838 2.681 5.359 3.219 11.237 3.219 16.577v94.185h164.717c6.92 0 11.778-1.079 14.437-3.738 2.659-2.681 3.738-7.48 3.738-14.437v-712.953c0-13.899-3.738-17.656-17.638-17.656h-881.429c-5.569-0.076-11.142 0.462-16.577 1.599-1.464 0.462-2.892 1.003-4.279 1.62-1.388 0.636-0.541 1.079-0.541 5.359v379.744c1.079 112.843 1.079 230.507 0.541 346.047zM1025.165 704.894c-0.058 6.902-1.137 13.743-3.2 20.337-9.097 28.336-33.157 44.375-65.791 44.375-56.153 0-111.245 0-165.796-0.541 0.541 16.598 0.541 33.695 0 49.752v13.899c0 11.237-4.279 18.197-8.559 21.397-4.279 5.34-10.699 7.498-17.656 7.498-14.978-0.541-24.598-11.778-24.598-28.355v-63.651h-444.453v60.97c0 22.458-13.899 30.494-25.677 30.494h-0.541c-6.554 0.135-12.915-2.351-17.638-6.92-5.34-5.359-8.076-13.358-8.076-23.537v-61.548h-113.326c-23.014 0-46.533 0-69.547-0.52-28.819-0.541-59.371-20.856-59.371-62.049 0.52-196.29 0.52-395.26 0.52-588.332v-142.277c0-22.458 10.717-40.114 31.017-50.253 14.996-7.517 29.993-8.559 43.333-8.559h887.325c35.834 2.121 63.11 30.476 63.11 65.25-1.079 218.207-0.52 471.19-1.079 722.572zM643.185 59.171l-129.487 129.402-129.487-129.402c-5.997-5.958-15.702-5.936-21.681 0.040-5.997 5.976-6.019 15.672-0.058 21.685l129.487 129.402-129.487 129.402c-6.153 6.129-6.153 16.057 0 21.724 2.853 2.95 6.771 4.588 10.879 4.588 4.089 0 8.004-1.638 10.86-4.588l129.487-129.402 129.487 129.402c6.019 5.958 15.702 5.936 21.699-0.040 5.979-5.994 5.997-15.69 0.040-21.685l-129.487-129.402 129.487-129.402c2.951-2.852 4.609-6.765 4.609-10.873 0-4.087-1.658-8-4.609-10.852-5.67-6.129-15.585-6.129-21.739 0zM862.958 551.725h-699.209c-9.754-0.175-17.638-12.008-17.793-26.681 0.135-14.702 8.018-26.565 17.793-26.768h699.671c6.438-0.058 12.395 5.134 15.574 13.573s3.084 18.791-0.251 27.085c-3.335 8.294-9.406 13.224-15.846 12.875l0.058-0.087z" />
<glyph unicode="&#xe90e;" glyph-name="plan-flow" d="M578.734 784.409c55.279 0 100.106-44.827 100.106-100.105s-44.827-100.097-100.106-100.097h-133.474c-55.278 0-100.097 44.823-100.097 100.098s44.819 100.104 100.097 100.104h133.474zM578.734 450.735c55.279 0 100.106-44.827 100.106-100.105s-44.827-100.097-100.106-100.097h-133.474c-55.278 0-100.097 44.819-100.097 100.097s44.819 100.105 100.097 100.105h133.474zM578.734 117.061c55.279 0 100.106-44.826 100.106-100.105s-44.827-100.106-100.106-100.106h-133.474c-55.278 0-100.097 44.828-100.097 100.106s44.819 100.105 100.097 100.105h133.474zM211.689 50.325v66.745l100.106-100.106-100.106-100.105v66.736c-110.563 0-200.202 89.654-200.202 200.211s89.646 200.194 200.202 200.194h66.737v-66.737h-66.737c-35.705 0-69.179-13.787-94.432-39.039-25.137-25.245-39.032-58.722-39.032-94.426s13.894-69.188 39.032-94.433c25.253-25.136 58.728-39.040 94.432-39.040zM812.302 717.682v-0.009c110.563 0 200.211-89.645 200.211-200.202s-89.653-200.211-200.211-200.211v-66.73l-100.097 100.097 100.097 100.11v-66.729c35.705 0 69.188 13.894 94.433 39.032 25.136 25.253 39.039 58.728 39.039 94.432s-13.795 69.179-39.039 94.433c-25.245 25.131-58.728 39.032-94.433 39.032h-66.729v66.737h66.729z" />
<glyph unicode="&#xe90f;" glyph-name="qingwu-2" d="M52.831 704.374c0 11.759 0.52 12.297 12.838 12.838 19.236 1.061 39.035 1.061 57.751 1.061h119.281v-94.145c0-20.318 12.838-29.975 25.136-29.975 6.92 0 13.376 2.14 17.656 6.92 3.738 3.738 8.559 11.237 8.559 23.537v93.662h444.453v-96.863c0-13.376 6.921-22.996 19.258-26.215 12.337-3.2 22.996 1.62 28.877 12.838 2.681 5.359 3.219 11.237 3.219 16.577v94.185h164.717c6.92 0 11.778-1.079 14.437-3.738 2.659-2.681 3.738-7.48 3.738-14.437v-712.953c0-13.899-3.738-17.656-17.638-17.656h-881.429c-5.569-0.076-11.142 0.462-16.577 1.599-1.464 0.462-2.892 1.003-4.279 1.62-1.388 0.636-0.541 1.079-0.541 5.359v379.744c1.079 112.843 1.079 230.507 0.541 346.047zM1025.165 704.894c-0.058 6.902-1.137 13.743-3.2 20.337-9.097 28.336-33.157 44.375-65.791 44.375-56.153 0-111.245 0-165.796-0.541 0.541 16.598 0.541 33.695 0 49.752v13.899c0 11.237-4.279 18.197-8.559 21.397-4.279 5.34-10.699 7.498-17.656 7.498-14.978-0.541-24.598-11.778-24.598-28.355v-63.651h-444.453v60.97c0 22.458-13.899 30.494-25.677 30.494h-0.541c-6.554 0.135-12.915-2.351-17.638-6.92-5.34-5.359-8.076-13.358-8.076-23.537v-61.548h-113.326c-23.014 0-46.533 0-69.547-0.52-28.819-0.541-59.371-20.856-59.371-62.049 0.52-196.29 0.52-395.26 0.52-588.332v-142.277c0-22.458 10.717-40.114 31.017-50.253 14.996-7.517 29.993-8.559 43.333-8.559h887.325c35.834 2.121 63.11 30.476 63.11 65.25-1.079 218.207-0.52 471.19-1.079 722.572zM862.958 551.725l-0.058 0.087c6.438 0.349 12.511-4.584 15.846-12.875s3.433-18.649 0.251-27.085c-3.182-8.44-9.137-13.632-15.574-13.573h-699.671c-9.772 0.204-17.656 12.063-17.793 26.768 0.153 14.673 8.039 26.506 17.793 26.681h699.209zM310.946 229.521c-7.78 7.555-7.951 20.001-0.381 27.795 7.555 7.752 20.015 7.937 27.781 0.367l131.158-127.577 247.559 243.895c7.752 7.612 20.186 7.498 27.795-0.225 7.612-7.737 7.498-20.186-0.225-27.781l-261.273-257.398c-7.584-7.47-19.804-7.541-27.471-0.071l-144.944 140.998z" />
<glyph unicode="&#xe910;" glyph-name="plan-higher" d="M574.604 8.048c-69.189 0-125.338 56.149-125.338 125.338v250.614h313.343l-376.015 501.291-375.952-501.291h313.343v-250.614c0-138.436 112.241-250.677 250.677-250.677h438.682v125.338h-438.744z" />
<glyph unicode="&#xe911;" glyph-name="qingwu-3" d="M52.831 704.374c0 11.759 0.52 12.297 12.838 12.838 19.236 1.061 39.035 1.061 57.751 1.061h119.281v-94.145c0-20.318 12.838-29.975 25.136-29.975 6.92 0 13.376 2.14 17.656 6.92 3.738 3.738 8.559 11.237 8.559 23.537v93.662h444.453v-96.863c0-13.376 6.921-22.996 19.258-26.215 12.337-3.2 22.996 1.62 28.877 12.838 2.681 5.359 3.219 11.237 3.219 16.577v94.185h164.717c6.92 0 11.778-1.079 14.437-3.738 2.659-2.681 3.738-7.48 3.738-14.437v-712.953c0-13.899-3.738-17.656-17.638-17.656h-881.429c-5.569-0.076-11.142 0.462-16.577 1.599-1.464 0.462-2.892 1.003-4.279 1.62-1.388 0.636-0.541 1.079-0.541 5.359v379.744c1.079 112.843 1.079 230.507 0.541 346.047zM1025.165 704.894c-0.058 6.902-1.137 13.743-3.2 20.337-9.097 28.336-33.157 44.375-65.791 44.375-56.153 0-111.245 0-165.796-0.541 0.541 16.598 0.541 33.695 0 49.752v13.899c0 11.237-4.279 18.197-8.559 21.397-4.279 5.34-10.699 7.498-17.656 7.498-14.978-0.541-24.598-11.778-24.598-28.355v-63.651h-444.453v60.97c0 22.458-13.899 30.494-25.677 30.494h-0.541c-6.554 0.135-12.915-2.351-17.638-6.92-5.34-5.359-8.076-13.358-8.076-23.537v-61.548h-113.326c-23.014 0-46.533 0-69.547-0.52-28.819-0.541-59.371-20.856-59.371-62.049 0.52-196.29 0.52-395.26 0.52-588.332v-142.277c0-22.458 10.717-40.114 31.017-50.253 14.996-7.517 29.993-8.559 43.333-8.559h887.325c35.834 2.121 63.11 30.476 63.11 65.25-1.079 218.207-0.52 471.19-1.079 722.572zM862.958 551.725l-0.058 0.087c6.438 0.349 12.511-4.584 15.846-12.875s3.433-18.649 0.251-27.085c-3.182-8.44-9.137-13.632-15.574-13.573h-699.671c-9.772 0.204-17.656 12.063-17.793 26.768 0.153 14.673 8.039 26.506 17.793 26.681h699.209zM649.782 237.054c5.83-4.314 9.287-11.174 9.287-18.434 0.029-7.26-3.4-14.091-9.233-18.434l-119.923-89.455c-3.972-2.942-8.776-4.573-13.72-4.545-7.001 0-13.918 3.173-18.434 9.233-7.573 10.173-5.488 24.549 4.688 32.154l64.078 47.786h-221.297c-12.69 0-22.979 10.26-22.979 22.95s10.288 22.979 22.979 22.979h221.697l-64.42 47.729c-10.202 7.573-12.319 21.949-4.772 32.125 7.544 10.202 21.92 12.348 32.125 4.8l119.923-88.885z" />
<glyph unicode="&#xe912;" glyph-name="plan-label" d="M85.335 864h853.334c29.456 0 53.335-23.879 53.335-53.335v-643.334c0-29.456-23.879-53.335-53.335-53.335h-234.665l-183.514-210-168.484 210h-266.667c-29.456 0-53.335 23.879-53.335 53.335v643.334c0 29.456 23.879 53.335 53.335 53.335z" />
<glyph unicode="&#xe913;" d="M852.352 504.565c0-79.283-27.063-152.234-72.471-210.13h0.014l-268.384-387.695-268.385 387.695c-45.38 57.896-72.456 130.858-72.456 210.13 0 188.248 152.594 340.841 340.841 340.841 188.246 0 340.84-152.604 340.84-340.841z" />
<glyph unicode="&#xe914;" glyph-name="plan-level" d="M858.57 753.506c-134.231 12.136-235.975 83.893-284.526 118.879-11.663 8.447-25.229 12.853-39.271 12.853-16.898 0-33.556-6.545-46.765-18.564-81.751-73.897-218.837-105.67-293.21-111.381-36.772-2.736-65.449-35.938-65.449-75.563v-314.63c0-150.652 223.955-467.545 399.716-467.545 183.972 0 394.718 323.557 394.718 455.882v324.627c-0.12 39.744-28.084 72.114-65.212 75.446zM751.591 560.014l-181.949-371.869c-6.664-13.566-20.824-20.943-35.105-19.634-14.279-1.31-28.441 6.068-35.105 19.634l-181.829 371.869c-8.567 17.611-1.31 38.794 16.302 47.481l6.781 3.332c17.611 8.567 38.794 1.31 47.481-16.302l146.487-299.281 146.487 299.281c8.567 17.611 29.867 24.872 47.481 16.302l6.781-3.332c17.491-8.567 24.872-29.867 16.185-47.481z" />
<glyph unicode="&#xe915;" glyph-name="area" d="M252.089-64.337h519.865v87.636h-519.865v-87.636zM252.089 744.532h525.29v87.636h-525.29v-87.636zM878.050 124.058h82.118v522.562h-82.118v-522.562zM63.755 124.058h87.544v519.865h-87.544v-519.865zM366.755 589.763l352.629-352.629c18.005-18.005 18.005-47.137 0-65.141-17.977-17.977-47.137-17.977-65.141 0l-352.629 352.66c-18.005 17.977-18.005 47.137 0 65.113 17.977 18.005 47.137 18.005 65.141 0zM88.878-42.29h99.579v102.731h-99.579v-102.731zM-10.67-138.655h298.763v298.763h-298.763v-298.763zM88.878 707.346h99.579v99.668h-99.579v-99.668zM-10.67 607.891h298.763v298.763h-298.763v-298.763zM832.302 705.255h101.821v100.698h-101.821v-100.698zM735.39 607.891h299.28v298.763h-299.28v-298.763zM838.514-39.199h96.485v99.668h-96.485v-99.668zM735.876-138.655h298.763v298.763h-298.763v-298.763z" />
<glyph unicode="&#xe916;" d="M585.549 279.321c-0.013 20.348-0.029 40.696-0.052 61.044l60.586-60.586c0.004-20.334 0.005-40.668 0.008-61l-60.543 60.543zM585.576 214.412l60.524-60.524c0.014-73.351 0.051-146.696 0.187-220.052 0.032-13.086-1.38-24.986-11.579-34.32-12.605 0.032-25.146 0.032-37.752 0.032-0.288 0.481-0.417 1.058-0.77 1.38-7.57 6.64-10.681 15.011-10.648 24.954 0.096 18.411 0.032 36.822 0.032 55.233 0 77.776 0.025 155.539 0.005 233.298zM165.917 698.953l-43.673 43.673c8.997 11.424 20.248 20.944 33.093 27.899l47.648-47.648c-16.347-1.842-29.649-10.374-37.066-23.926zM430.39 369.598c0.026-0.685 0.038-1.379 0.035-2.082-0.225-85.927-0.192-171.951-0.065-257.847 0-13.118-4.747-23.382-16.518-29.637-18.764-10.008-42.21 2.918-43.942 24.056-0.16 2.31-0.16 4.683-0.16 6.993 0 81.149-0.032 162.298 0.065 243.414 0 3.528-1.027 5.966-3.496 8.403-78.101 78.006-156.267 155.978-234.144 234.209-21.201 21.298-33.004 47.31-33.069 77.749-0.030 8.116 0.811 16.013 2.434 23.603l328.861-328.861zM599.622 391.122c82.483 82.295 164.872 164.716 247.26 247.104 6.96 7.025 12.638 14.754 15.428 24.505 8.403 28.996-13.118 59.145-43.332 60.46-1.603 0.065-3.24 0.065-4.843 0.065h-546.645l-60.481 60.481c1.014 0.027 2.025 0.041 3.033 0.044 201.332 0.16 402.6 0.16 603.899 0.096 42.146 0 74.413-18.218 96.417-54.238 21.811-35.827 18.796-85.735-7.025-118.836-4.49-5.741-9.333-11.29-14.498-16.423-79.673-79.769-159.347-159.475-239.116-239.052-2.598-2.598-3.657-5.068-3.657-8.788 0-0.62 0.001-1.24 0.001-1.86l-46.442 46.442z" />
<glyph unicode="&#xe917;" glyph-name="plan-link" d="M411.551 494.526h179.871v-60.444h-179.871v60.444zM51.809 313.193h239.827v-60.444h-239.827v60.444zM1011.122 434.082h-239.827v60.444h239.827v-60.444zM411.551 10.972h-59.956v483.556h59.956v-483.556zM981.142 10.972h-569.591v60.444h539.613v362.667h59.956v-423.11h-29.978zM81.789 736.305h569.591v-60.444h-539.613v-362.667h-59.956v423.11h29.978zM681.358 252.749h-209.849v60.444h179.871v423.11h59.956v-483.556h-29.978z" />
<glyph unicode="&#xe918;" glyph-name="email-1" d="M982.286 100.591v-6.909l-285.577 283.274 285.577 283.274v-559.639zM936.225 54.531h-829.094c-4.606 0-11.515 0-16.121 2.303l287.88 287.88 78.303-78.303c18.424-18.424 41.455-27.636 64.485-27.636s46.061 9.212 64.485 25.333l78.303 78.303 287.88-287.88h-16.121zM61.072 100.591v559.639l285.577-283.274-285.577-283.274v6.909zM107.133 699.382h829.094c4.606 0 11.515 0 16.121-2.303l-398.426-398.426c-9.212-9.212-20.727-13.818-32.243-13.818s-23.030 4.606-32.243 13.818l-398.426 398.426c4.606 2.303 11.515 2.303 16.121 2.303zM936.225 745.443h-829.094c-50.667 0-92.122-41.455-92.122-92.122v-552.73c0-50.667 41.455-92.122 92.122-92.122h829.094c50.667 0 92.122 41.455 92.122 92.122v552.73c0 50.667-41.455 92.122-92.122 92.122z" />
<glyph unicode="&#xe919;" glyph-name="line" d="M21.23 874.621v-282.151h222.776l478.101-492.297v-207.498h280.514v279.63h-236.776l-464.492 478.265v224.052h-280.121zM115.609 687.569h94.377v95.064h-94.377v-95.064z" />
<glyph unicode="&#xe91a;" glyph-name="plan-loaction" d="M893.905 114.192c-22.464 17.217-53.933 32.368-93.271 45.060-22.276 7.183-46.73 13.48-72.703 18.791-17.536 3.543-33.933-10.331-33.933-28.926 0-14.068 9.573-26.268 22.938-28.926 23.98-4.82 46.353-10.626 66.827-17.217 75.927-24.694 96.021-51.554 96.021-62.377s-20.094-37.68-96.021-62.277c-72.229-23.317-168.724-36.105-271.76-36.105s-199.531 12.788-271.76 36.105c-75.927 24.597-96.021 51.454-96.021 62.277s20.094 37.68 96.021 62.277c20.474 6.591 42.844 12.397 66.827 17.217 13.271 2.657 22.938 14.857 22.938 28.926 0 18.594-16.4 32.566-33.933 28.926-25.973-5.311-50.427-11.511-72.703-18.791-39.432-12.691-70.807-27.843-93.271-45.060-19.526-14.757-42.75-39.648-42.75-73.494s23.224-58.734 42.75-73.591c22.464-17.217 53.933-32.368 93.271-45.060 77.537-24.988 180.005-38.763 288.631-38.763s211.094 13.774 288.631 38.763c39.432 12.691 70.807 27.843 93.271 45.060 19.526 14.857 42.75 39.748 42.75 73.591s-23.224 58.734-42.75 73.591zM276.532 284.565c-31.533 32.139-55.988 69.758-72.7 111.728-16.051 40.551-24.171 83.372-24.171 127.324s8.119 86.773 24.171 127.324c16.618 41.97 41.070 79.686 72.7 111.825 31.63 32.233 68.639 57.187 109.993 74.202 39.937 16.448 82.14 24.766 125.478 24.766s85.541-8.318 125.478-24.672c41.355-17.015 78.363-41.97 109.993-74.202 31.533-32.139 56.082-69.758 72.7-111.825 16.051-40.551 24.171-83.372 24.171-127.324s-8.119-86.773-24.171-127.324c-16.618-41.97-41.070-79.686-72.7-111.825l-196.948-200.584c-10.291-10.398-23.98-16.163-38.52-16.163s-28.229 5.672-38.52 16.163l-196.948 200.584zM521.232 363.227c86.511 0 156.937 70.426 156.937 156.937s-70.426 156.937-156.937 156.937c-86.511 0-156.937-70.426-156.937-156.937s70.426-156.937 156.937-156.937z" />
<glyph unicode="&#xe91e;" glyph-name="loaction-1" d="M502.382 798.155c-165.496 0-299.292-133.842-299.292-298.377 0-52.1 4.437-69.62 36.823-143.905 27.080-62.118 204.971-323.535 262.012-406.786 57.086 83.251 234.886 344.668 261.966 406.786 32.386 74.331 36.823 91.805 36.823 143.905 0 164.535-133.796 298.377-298.331 298.377zM513.497-110.424h-23.145l-6.45 9.331c-10.201 14.774-249.844 362.095-283.648 439.675-34.398 78.952-40.436 103.103-40.436 161.195 0 188.412 153.236 341.649 341.604 341.649 189.373 0 342.609-153.236 342.609-341.649 0-58.138-6.038-82.245-40.482-161.195-33.804-77.579-273.402-424.9-283.557-439.675l-6.496-9.331zM501.91 589.007c-63.399 0-114.95-51.551-114.95-114.95 0-63.353 51.551-114.905 114.95-114.905 63.353 0 114.95 51.551 114.95 114.95s-51.597 114.905-114.95 114.905zM501.91 315.881c-87.23 0-158.176 70.992-158.176 158.222s70.946 158.176 158.176 158.176c87.23 0 158.176-70.946 158.176-158.222 0-87.23-70.946-158.176-158.176-158.176z" />
<glyph unicode="&#xe921;" glyph-name="plan-mark" d="M257.538 308.361l5.319 430.672 620.262 10.785v-871.343l-315.052 311.425-315.849-312.214 5.32 430.672zM140.88 439.74v421.413h315.451c264.643 0 315.451-4.629 315.451-28.751 0-23.72-49.164-29.7-280.949-34.17l-280.949-5.419-9.86-379.137c-7.25-278.822-16.379-381.28-34.501-387.243-19.208-6.319-24.646 84.867-24.646 413.304z" />
<glyph unicode="&#xe924;" glyph-name="clipboard-file" d="M713.68 168.796h-387.607c-23.979 0-43.364-19.439-43.364-43.307 0-24.035 19.383-43.418 43.364-43.418h387.607c23.925 0 43.364 19.439 43.364 43.418 0 23.869-19.439 43.307-43.364 43.307zM713.68 348.672h-387.607c-23.979 0-43.364-19.439-43.364-43.364 0-23.979 19.383-43.418 43.364-43.418h387.607c23.925 0 43.364 19.439 43.364 43.418 0 23.925-19.439 43.364-43.364 43.364zM326.073 441.765h387.607c23.925 0 43.364 19.383 43.364 43.364s-19.439 43.364-43.364 43.364h-387.607c-23.979 0-43.364-19.383-43.364-43.364s19.383-43.364 43.364-43.364zM863.926 808.883h-119.012v-42.587h119.012c8.086 0 14.676-6.534 14.676-14.676v-786.289c0-8.030-6.59-14.62-14.676-14.62h-688.101c-8.086 0-14.676 6.59-14.676 14.676v786.289c0 8.086 6.59 14.676 14.676 14.676h118.956v42.587h-118.956c-31.566 0-57.209-25.697-57.209-57.209v-786.235c0-31.566 25.641-57.209 57.209-57.209h688.101c31.566 0 57.209 25.641 57.209 57.153v786.235c0 31.566-25.641 57.209-57.209 57.209zM389.208 622.528h261.34c44.581 0 80.855 36.219 80.855 80.689v4.374c0 2.715-0.166 5.483-0.442 8.196-3.766 37.106-32.841 66.844-69.559 71.829-3.543 0.442-7.145 0.775-10.854 0.775h-35v6.534c0 44.471-36.219 80.799-80.799 80.799h-29.795c-44.527 0-80.799-36.329-80.799-80.799v-6.534h-35c-3.655 0-7.255-0.332-10.798-0.775-36.773-4.985-65.847-34.667-69.559-71.773-0.276-2.769-0.442-5.483-0.442-8.252v-4.32c0-44.527 36.275-80.745 80.855-80.745z" />
<glyph unicode="&#xe925;" glyph-name="exclamation-circle-r" d="M511.911 129.969c-25.848 0-46.79 20.579-46.79 45.996s20.941 45.923 46.79 45.923c25.848 0 46.862-20.506 46.862-45.923s-21.014-45.996-46.862-45.996zM483.75 609.061h56.249c10.326 0 18.411-8.448 17.835-18.629l-14.225-303.774c-0.29-5.197-4.766-9.459-9.963-9.459h-43.397c-5.27 0-9.822 4.19-9.963 9.387l-14.37 303.846c-0.435 10.181 7.51 18.629 17.835 18.629zM511.983 847.996c-259.224 0-469.346-210.122-469.346-469.346s210.122-469.346 469.346-469.346c259.297 0 469.346 210.122 469.346 469.346s-210.050 469.346-469.346 469.346z" />
<glyph unicode="&#xe926;" glyph-name="file-export-r" d="M550.21-97.038h-444.368c-27.653 0-50.069 22.135-50.069 49.442v872.441c0 27.306 22.416 49.442 50.069 49.442h490.116l241.538-245.123v-273.187c-36.1 17.939-76.791 28.025-119.839 28.025-82.911 0-157.083-37.42-206.55-96.291h-312.874v-36.772h286.872c-18.678-31.732-31.047-67.62-35.384-105.946h-251.489v-36.772h249.835c1.852-83.167 41.358-157.044 102.142-205.259zM592.049 637.951v218.956h-37.239v-255.726h261.842v36.772h-224.603zM198.233 393.653h496.52v36.772h-496.52v-36.772zM720.599-112.169c-123.475 0-223.57 100.095-223.57 223.57s100.095 223.57 223.57 223.57c123.475 0 223.57-100.095 223.57-223.57s-100.095-223.57-223.57-223.57zM822.093 130.62l-73.534 54.502c-6.257 4.626-15.072 3.312-19.698-2.944-4.626-6.239-3.33-15.054 2.927-19.698l39.501-29.267h-135.94c-7.781 0-14.090-6.308-14.090-14.090s6.308-14.072 14.090-14.072h135.695l-39.29-29.301c-6.239-4.661-7.519-13.476-2.873-19.715 2.77-3.715 7.010-5.66 11.303-5.66 3.032-0.017 5.977 0.982 8.412 2.787l73.534 54.853c3.575 2.664 5.677 6.853 5.66 11.303 0 4.452-2.121 8.658-5.694 11.303z" />
<glyph unicode="&#xe927;" glyph-name="measure" d="M662.811 886.857l-639.955-640 320-320 639.955 640.046-320 319.954zM662.811 566.949l-95.954 95.909 95.954 96.046 192.046-191.954-512-512.091-192.046 192.046 96.046 96 96-96 63.955 64.046-95.954 95.954 64 64.046 128-128.045 64 64-128.045 128 64.046 64 96-96 63.955 64.046z" />
<glyph unicode="&#xe92b;" glyph-name="patrol-area-add" d="M685.524 438.221l-176.038-235.304-175.819 234.998c-34.503 47.306-51.574 102.426-48.072 154.973 7.791 106.442 93.682 216.538 223.892 216.538 131.325 0 216.964-109.954 223.88-216.374 3.644-53.85-13.34-108.849-47.842-154.831zM328.392 110.559l-7.495-132.573h-224.209l44.833 132.573h186.871zM847.839 344.922h-152.631l41.255 55.141c43.618 58.15 65.067 128.207 60.394 197.202-10.046 154.645-136.271 275.783-287.37 275.783-149.829 0-276.045-121.029-287.37-275.728-4.508-67.616 16.841-137.541 60.361-197.213l41.287-55.174h-147.313c-13.657 0-25.77-8.7-30.148-21.612l-124.103-366.958c-3.283-9.706-1.686-20.408 4.279-28.736 5.986-8.328 15.605-13.274 25.869-13.262h593.727c-15.747 19.096-28.791 40.5-38.552 63.622h-63.042v59.398h46.113c-2.101 13.23-3.217 26.778-3.217 40.598 0 7.77 0.405 15.429 1.083 23.035h-75.791c-8.437 0-16.535-3.349-22.499-9.323-5.964-5.964-9.323-14.062-9.323-22.499v-91.209h-96.21l9.181 162.6c0.493 8.744-2.626 17.29-8.645 23.648-6.008 6.357-14.368 9.958-23.123 9.958h-199.018l36.232 107.108h172.11l112.635-150.563c6.008-8.032 15.452-12.76 25.475-12.76 10.035 0 19.468 4.728 25.475 12.76l112.646 150.563h39.427c43.575 33.857 98.278 54.069 157.731 54.069 9.116 0 18.122-0.493 26.986-1.411-5.91 6.773-14.511 10.965-23.91 10.965zM507.382 724.593c-65 0-117.702-52.689-117.712-117.702s52.679-117.723 117.691-117.735c64.99 0.055 117.668 52.723 117.745 117.712 0 65.012-52.701 117.723-117.723 117.723zM793.17 141.634v123.497h45.719v-123.497h139.076v-53.706h-139.076v-145.034h-45.719v145.034h-137.442v53.706h137.442zM507.359 552.778c-29.874 0-54.091 24.217-54.091 54.091-0.153 14.4 5.494 28.243 15.67 38.421s24.030 15.823 38.421 15.67c14.39 0.153 28.243-5.494 38.421-15.67s15.834-24.019 15.67-38.421c0-29.874-24.217-54.091-54.091-54.091z" />
<glyph unicode="&#xe92c;" glyph-name="security-camera-r" d="M12.697 211.985c-10.73-20.237-15.193-36.711-1.436-51.282l80.95-85.646c13.738-14.553 31.259-11.002 51.225-1.436l49.11 22.818-154.294 163.239-25.554-47.693zM533.577 375.903l210.854 200.377c6.656 6.306 10.517 14.999 10.749 24.157s-3.182 18.026-9.508 24.662l-156.622 164.888c-6.306 6.636-14.999 10.497-24.157 10.73-9.139 0.233-18.026-3.182-24.662-9.488l-482.111-458.070c-6.636-6.306-10.517-14.979-10.749-24.138-0.252-9.158 3.162-18.026 9.469-24.681l156.661-164.888c6.306-6.636 14.999-10.497 24.157-10.73s18.026 3.182 24.662 9.508l218.926 208.022 81.532-98.258c9.818 22.954 28.095 41.29 51.011 51.225l-80.212 96.686zM934.97 380.23h86.364v-394.428h-86.403v155.439h-197.758c21.208 36.788 16.007 83.104-12.806 114.284h210.603v124.705zM586.637 189.654c0 23.556 12.554 45.306 32.946 57.084 20.412 11.778 45.52 11.778 65.932 0 20.373-11.778 32.946-33.529 32.946-57.084 0-23.536-12.573-45.306-32.946-57.084-20.412-11.778-45.52-11.778-65.932 0-20.393 11.778-32.946 33.548-32.946 57.084z" />
<glyph unicode="&#xe92d;" glyph-name="thumbtack" d="M555.288 340.172c1.444-3.202 14.026-32.264 13.121-64.25-0.539-19.369-16.41-34.683-35.657-34.683-0.348 0-0.696 0-1.044 0-19.717 0.574-35.24 17.002-34.683 36.719 0.383 13.208-4.907 28.418-6.978 33.186-7.831 17.994 0.313 39.051 18.272 46.986 17.942 7.953 38.929-0.017 46.969-17.959zM797.146 561.043c-15.558 7.274-34.004 4.055-46.168-8.092l-153.21-153.228c-11.607-11.607-15.088-29.132-8.91-44.324 0.174-0.452 18.586-46.273 21.701-105.598 3.115-58.942-9.397-109.443-37.241-150.722l-173.101 173.136c-0.017 0-0.017 0-0.035 0.017l-173.084 173.084c109.304 73.838 249.793 18.185 256.198 15.575 15.244-6.282 32.769-2.784 44.446 8.875l153.21 153.21c12.147 12.164 15.366 30.611 8.092 46.186-14.27 30.454-9.049 58.629-0.052 79.424l187.58-187.597c-20.813-8.997-48.988-14.2-79.424 0.052zM969.36 583.648l-257.729 257.729c-15.923 15.923-41.766 15.923-57.706 0-3.463-3.463-77.754-79.372-49.214-179.192l-116.683-116.683c-63.78 19.369-228.771 52.886-350.24-68.583-15.941-15.941-15.941-41.766 0-57.706l175.851-175.851-259.017-259.017c-15.941-15.941-15.941-41.783 0-57.724 7.97-7.97 18.412-11.955 28.871-11.955 10.441 0 20.883 3.985 28.853 11.955l258.999 259.017 175.868-175.868c7.97-7.953 18.412-11.938 28.853-11.938s20.883 3.985 28.853 11.938c121.468 121.486 87.952 286.46 68.583 350.257l116.683 116.683c99.837-28.557 175.729 45.768 179.175 49.214 15.941 15.941 15.941 41.783 0 57.724z" />
<glyph unicode="&#xe92e;" glyph-name="warning-l" d="M1003.722 35.434c10.551-18.313 10.551-40.836 0-59.149s-30.121-29.629-51.223-29.629h-873.3c-21.156 0-40.672 11.316-51.277 29.629-10.551 18.313-10.551 40.836 0 59.149l436.677 756.313c10.496 18.368 30.067 29.684 51.223 29.575 21.156 0.109 40.781-11.207 51.223-29.575l436.677-756.313zM84.065 8.647h863.515l-431.757 747.895-431.757-747.895zM469.317 138.296c0 25.693 20.828 46.521 46.521 46.521 25.639 0 46.467-20.828 46.467-46.521s-20.828-46.521-46.467-46.521c-25.693 0-46.521 20.828-46.521 46.521zM484.826 464.825c0 11.043 5.904 21.32 15.525 26.841 9.567 5.521 21.375 5.521 30.996 0 9.567-5.521 15.471-15.799 15.471-26.841v-164.492c0-17.111-13.885-30.996-30.996-30.996s-30.996 13.885-30.996 30.996v164.492z" />
<glyph unicode="&#xe92f;" glyph-name="weixin-l" d="M966.161 368.275c-14.698 29.195-35.768 55.427-62.663 77.941-48.385 40.513-110.963 65.131-178.378 70.627-4.479 22.31-12.091 44.068-22.899 65.050-17.558 34.098-42.581 64.641-74.417 90.812-64.702 53.159-150.474 82.436-241.545 82.436s-176.843-29.276-241.545-82.436c-31.836-26.171-56.88-56.714-74.417-90.812-18.336-35.61-27.63-73.467-27.63-112.53s9.294-76.94 27.63-112.53c13.5-26.253 31.457-50.381 53.515-72.037v-0.020c0 0 21.070-21.043 25.57-25.088l-22.247-83.621c-2.439-9.255 0.694-19.041 8.096-25.293 4.773-4.025 10.745-6.149 16.822-6.19 3.385-0.020 6.834 0.613 10.093 1.92l120.972 48.869c12.511-1.92 12.511-1.92 22.184-3.861 26.2-5.23 53.347-7.927 80.957-7.927 13.121 0 26.137 0.613 38.985 1.818 0.841-1.757 1.682-3.514 2.565-5.271 14.698-29.195 35.768-55.427 62.663-77.941 54.609-45.723 127.239-71.22 204.578-71.792 30.974-0.245 61.275 3.555 90.020 11.073l94.709-39.737c2.692-1.144 5.53-1.696 8.369-1.737 5.068-0.020 10.072 1.655 14.068 4.944 6.245 5.108 9 13.218 7.086 20.941l-16.633 66.95c2.839 2.125 5.551 4.229 8.054 6.252 27.252 22.105 48.742 48.011 63.903 76.981 15.855 30.298 24.014 62.578 24.287 95.92 0.252 33.363-7.381 65.765-22.752 96.288zM872.083 130.529c-6.708-5.394-15.371-8.805-20.859-15.588-0.736-0.919-1.367-1.9-1.914-2.901-0.021-0.061-0.063-0.143-0.105-0.204-0.084-0.143-0.168-0.306-0.252-0.47-1.787-3.432-2.607-7.355-2.208-11.38 0.063-2.084 0.336-4.168 0.736-6.19 1.85-9.296 5.383-20.287 6.624-24.292l3.133-12.646-63.125 26.457c-6.54 2.758-13.71 2.104-19.43-1.144-25.927-7.355-49.878-10.072-79.295-9.868-137.185 1.042-248.064 92.447-247.18 203.791 0.883 111.304 113.213 201.033 250.398 200.012 137.185-1.042 248.064-92.447 247.159-203.791-0.442-55.468-28.577-105.604-73.681-141.786zM386.259 228.144c-28.64 0-56.312 3.31-82.534 9.459v-0.102c-4.563 1.144-9.126 2.39-13.752 3.78-6.792 3.984-15.413 4.903-23.32 1.716l-76.352-30.666 4.016 15.139c1.556 4.801 5.993 17.938 8.411 29.093 0.526 2.431 0.883 4.944 0.988 7.437 0.547 4.822-0.357 9.541-2.418 13.709-0.105 0.225-0.231 0.429-0.336 0.654-0.021 0.041-0.042 0.102-0.084 0.143-0.631 1.226-1.367 2.411-2.25 3.534-6.455 8.254-16.801 12.503-24.771 19.102-9.715 8.050-17.474 15.343-27.168 25.19-36.504 40.043-58.142 89.525-58.142 143.032 0 133.001 133.547 241.199 297.71 241.199 143.787 0 264.087-83.028 291.738-193.025-69.496-3.555-134.451-27.417-184.749-68.216-27.252-22.126-48.742-48.031-63.903-77.001-15.855-30.278-24.014-62.557-24.266-95.92-0.147-16.079 1.577-31.932 5.11-47.459-7.885-0.511-15.876-0.797-23.93-0.797zM571.402 347.009c0-18.265 15.245-33.056 34.023-33.056s34.002 14.791 34.002 33.056c0 18.244-15.224 33.036-34.002 33.036s-34.023-14.791-34.023-33.036zM754.101 345.624c0-18.244 15.224-33.036 34.002-33.036s34.002 14.791 34.002 33.036c0 18.265-15.224 33.056-34.002 33.056s-34.002-14.791-34.002-33.056zM232.023 567.304c0-14.465 7.927-27.806 20.817-35.038s28.745-7.232 41.656 0c12.869 7.232 20.796 20.573 20.796 35.038s-7.927 27.806-20.796 35.038c-12.911 7.232-28.766 7.232-41.656 0s-20.817-20.573-20.817-35.038zM455.699 565.616c0-22.351 18.652-40.452 41.635-40.452 23.004 0 41.656 18.101 41.656 40.452s-18.652 40.452-41.656 40.452c-22.983 0-41.635-18.101-41.635-40.452z" />
<glyph unicode="&#xe930;" glyph-name="plan-material" d="M298.030 428.623c-13.3-0.004-24.202 10.363-24.604 23.406v420.565c0.402 13.043 11.3 23.411 24.604 23.406h450.677c12.882-0.17 23.452-10.059 24.229-22.674v-420.565c0.001-13.188-10.787-23.937-24.229-24.139h-450.677zM386.934 739.475v-18.467c0.101-13.36 11.17-24.139 24.788-24.139h248.267v42.606c0 13.36-10.987 24.22-24.604 24.32h-223.663c-13.648-0.099-24.688-10.929-24.788-24.32zM453.291 361.697c6.654 0.196 13.104-2.257 17.883-6.804s7.471-10.801 7.469-17.33v-441.411c0-13.33-11.013-24.139-24.604-24.139h-428.686c-6.526-0.196-12.864 2.159-17.618 6.548s-7.535 10.452-7.729 16.858v442.144c0 13.33 11.013 24.139 24.604 24.139h428.686zM364.383 185.244v18.467c-0.1 13.39-11.14 24.221-24.788 24.32h-200.365c-13.723-0.099-24.788-11.041-24.788-24.501v-18.286c0.101-13.36 11.17-24.139 24.788-24.139h200.365c13.618 0 24.687 10.779 24.788 24.139zM998.653 361.697c6.654 0.196 13.104-2.257 17.883-6.804s7.471-10.801 7.469-17.33v-441.411c0-13.33-11.013-24.139-24.604-24.139h-428.686c-6.526-0.196-12.864 2.159-17.618 6.548s-7.535 10.452-7.729 16.858v442.144c0 13.33 11.013 24.139 24.604 24.139h428.686zM909.745 185.244l-0.188 18.286c-0.1 13.39-11.14 24.221-24.788 24.32h-200.365c-13.648-0.099-24.688-10.929-24.788-24.32v-18.286c0.101-13.36 11.17-24.139 24.788-24.139h200.365c6.575-0.049 12.899 2.466 17.584 6.993s7.343 10.692 7.392 17.141z" />
<glyph unicode="&#xe931;" glyph-name="patrol-area" d="M499.515 674.473c-14.432 0.16-28.288-5.472-38.496-15.68-10.176-10.207-15.84-24.064-15.68-38.464 0-29.92 24.256-54.176 54.176-54.176s54.144 24.256 54.144 54.176c0.16 14.4-5.472 28.256-15.68 38.464-10.176 10.207-24.064 15.84-38.464 15.68zM499.515 502.441c-65.12 0.032-117.888 52.8-117.856 117.888 0 65.12 52.768 117.888 117.856 117.888 65.12 0 117.888-52.8 117.888-117.888-0.064-65.088-52.8-117.824-117.888-117.888zM857.467 164.745h-167.84c-11.424-0.064-22.016 5.984-27.744 15.872s-5.728 22.080 0 31.968c5.728 9.888 16.32 15.936 27.744 15.872h147.936l-20.544 65.856h-177.056l-112.832-150.784c-5.984-8.032-15.456-12.768-25.504-12.768s-19.488 4.736-25.504 12.768l-112.8 150.784h-172.352l-36.256-107.264h199.296c8.767 0 17.12-3.616 23.136-9.952 6.016-6.4 9.152-14.944 8.672-23.712l-9.184-162.816h96.32v91.327c0 8.48 3.36 16.576 9.344 22.56 5.984 5.952 14.080 9.312 22.528 9.312h368.544l-15.904 50.976zM725.819 606.474c-6.944 106.592-92.672 216.672-224.192 216.672-130.368 0-216.384-110.24-224.192-216.832-3.52-52.608 13.6-107.808 48.127-155.167l176.064-235.327 176.287 235.616c34.56 46.048 51.552 101.12 47.904 155.040zM133.178 123.305l-44.928-132.736h224.544l7.488 132.736h-187.104zM893.274 50.057h-356.576v-59.488h375.136l-18.56 59.488zM980.827-60.151c-5.984-8.16-15.52-12.992-25.664-12.992h-911.296c-10.272 0-19.904 4.96-25.888 13.28-5.984 8.352-7.584 19.072-4.288 28.8l124.256 367.456c4.384 12.928 16.512 21.632 30.208 21.632h147.487l-41.344 55.232c-43.552 59.776-64.927 129.792-60.416 197.504 11.328 154.912 137.728 276.096 287.744 276.096 151.296 0 277.728-121.312 287.776-276.16 4.672-69.088-16.8-139.232-60.48-197.472l-41.312-55.2h152.832c13.952 0 26.272-9.056 30.4-22.368l114.72-367.456c3.040-9.664 1.28-20.192-4.736-28.352z" />
<glyph unicode="&#xe932;" glyph-name="plan-message" d="M512.064 896c-282.893 0-512.064-200.575-512.064-448.039 0-141.444 75.103-267.302 191.942-349.362v-226.595l224.276 136.163c31.044-5.153 62.993-8.115 95.714-8.115 282.764 0 512.064 200.575 512.064 448.039 0 247.339-229.172 447.911-511.936 447.911zM255.968 383.936c-35.297 0-64.022 28.597-64.022 64.022 0 35.297 28.597 64.022 64.022 64.022 35.297 0 64.022-28.597 64.022-64.022 0-35.297-28.597-64.022-64.022-64.022zM512.064 383.936c-35.297 0-64.022 28.597-64.022 64.022 0 35.297 28.597 64.022 64.022 64.022 35.297 0 64.022-28.597 64.022-64.022-0.129-35.297-28.725-64.022-64.022-64.022zM768.032 383.936c-35.297 0-64.022 28.597-64.022 64.022 0 35.297 28.597 64.022 64.022 64.022 35.297 0 64.022-28.597 64.022-64.022 0-35.297-28.725-64.022-64.022-64.022z" />
<glyph unicode="&#xe933;" glyph-name="three-d" d="M701.632 151.812c-11.072 0-22.187 3.16-30.1 9.502l-44.375-44.352c-17.415-19.027-47.514-19.027-66.54 0l-201.231 201.211-90.297-90.317 91.887-91.887c19.005-17.415 19.005-47.535 0-66.54l-31.69-31.69c-17.415-19.005-47.514-19.005-66.54 0l-229.741 229.741c-19.005 17.415-19.005 47.535 0 66.54l31.69 31.69c17.415 19.005 47.535 19.005 66.54 0l91.887-91.909 90.317 90.317-201.211 201.231c-19.027 17.435-19.027 47.535 0 66.54l148.924 148.947c17.435 19.005 47.535 19.005 66.562 0l201.211-201.231 90.317 90.317-91.887 91.887c-19.027 17.435-19.027 47.555 0 66.562l31.669 31.69c17.435 19.005 47.555 19.005 66.562 0l229.741-229.741c19.005-17.435 19.005-47.535 0-66.562l-31.69-31.69c-17.435-19.005-47.535-19.005-66.54 0l-91.909 91.909-90.317-90.317 201.231-201.211c19.005-17.435 19.005-47.555 0-66.562l-38.032-38.032c6.342-7.912 11.093-19.005 11.093-30.1 0-25.347-20.597-45.944-47.535-45.944zM891.769 243.71c0-125.169-106.162-228.171-239.243-228.171v66.562c45.944 0 88.727 17.435 120.396 47.535 31.71 30.1 49.125 71.292 49.125 114.074h69.722zM945.644 243.71v-1.59h69.702c0-188.549-161.609-343.815-361.25-343.815v66.54c160.039 0 291.551 125.169 291.551 278.866z" />
<glyph unicode="&#xe934;" glyph-name="plan-notice" d="M551.71 819.399c-15.098 7.102-32.918 4.757-45.742-5.895l-247.249-205.784-197.236 0.793c-11.34 0-22.266-4.479-30.298-12.511-8.101-8.032-12.684-18.958-12.684-30.402l-0.897-343.902c0-11.445 4.479-22.406 12.547-30.471 8.032-8.133 18.994-12.652 30.435-12.652h199.406l246.009-205.024c7.859-6.548 17.682-9.928 27.506-9.928 6.205 0 12.41 1.344 18.234 4.068 15.098 7.066 24.749 22.233 24.749 38.917v773.876c0 16.648-9.65 31.815-24.785 38.917zM718.404 604.445c-21.199 10.032-46.395 0.897-56.701-20.198-10.273-21.163-1.38-46.776 19.646-57.357 2.724-1.413 67.111-34.882 67.111-130.19 0-101.823-60.218-135.57-62.218-136.673-21.232-10.616-29.851-36.467-19.235-57.702 7.582-15.098 22.716-23.783 38.536-23.783 6.446 0 13.030 1.448 19.167 4.515 4.479 2.274 109.715 56.737 109.715 213.643 0 151.389-111.301 205.506-116.025 207.748zM852.248 730.707c-19.819 12.72-46.121 6.929-59.079-12.857-12.893-19.786-7.239-46.395 12.479-59.425 4.652-3.067 114.785-78.109 114.785-264.899 0-187.204-105.65-262.315-109.855-265.176-19.786-13.203-25.094-39.847-11.927-59.634 8.273-12.41 21.923-19.131 35.815-19.131 8.169 0 16.475 2.378 23.819 7.239 6.032 4 148.117 101.409 148.117 336.734 0 235.772-147.84 333.113-154.149 337.148z" />
<glyph unicode="&#xe935;" glyph-name="service-window" d="M269.892 786.652c8.439 20.387 28.347 33.674 50.41 33.674 30.142 0 54.559-24.417 54.559-54.559 0-22.063-13.286-41.952-33.674-50.41-20.387-8.439-43.867-3.771-59.467 11.83s-20.268 39.079-11.83 59.467zM320.302 659.918c28.946 0 56.714 11.491 77.161 31.958 20.468 20.468 31.978 48.236 31.978 77.161 0 60.285-48.874 109.14-109.14 109.14s-109.12-48.855-109.12-109.14c0-60.265 48.855-109.12 109.12-109.12zM430.523 332.526h-218.26v183.329c0 39.299 50.211 72.035 109.12 72.035 58.928 0 109.14-32.736 109.14-72.035v-183.329zM916.136 332.526v183.329c0 72.035-73.65 126.595-163.679 126.595s-163.7-56.754-163.7-126.595v-183.329h-103.674v183.329c0 72.035-73.65 126.595-163.7 126.595-90.008 0-163.679-56.754-163.679-126.595v-183.329h-103.135v-54.559h534.188v-34.91h54.559v272.799c0 39.299 50.211 72.035 109.14 72.035s109.12-32.736 109.12-72.035v-272.799h54.559v34.91h75.865v54.559h-75.865zM700.953 786.652c8.439 20.387 28.347 33.674 50.41 33.674 30.142 0 54.559-24.417 54.559-54.559 0-22.063-13.286-41.952-33.674-50.41-20.387-8.439-43.867-3.771-59.467 11.83s-20.268 39.079-11.83 59.467zM751.363 659.918c-60.265 0-109.12 48.855-109.12 109.12 0 60.285 48.855 109.14 109.12 109.14s109.14-48.855 109.14-109.14c0-28.925-11.51-56.694-31.978-77.161s-48.216-31.958-77.161-31.958zM785.737-73.431v330.671h54.559v-330.671h-54.559zM662.973-73.431v330.671h54.559v-330.671h-54.559zM359.592 107.724c7.241 0 14.164-2.872 19.29-7.98 5.127-5.127 7.999-12.069 7.999-19.311v-124.4c0-7.222-2.872-14.184-7.999-19.29-5.127-5.127-12.049-7.999-19.29-7.999h-264.64c-7.241 0-14.184 2.872-19.29 7.999-5.127 5.106-7.98 12.069-7.98 19.29v124.4c0 7.241 2.853 14.184 7.98 19.311 5.106 5.106 12.049 7.98 19.29 7.98h264.64zM122.241-16.676h210.061v69.841h-210.061v-69.841z" />
<glyph unicode="&#xe936;" glyph-name="plan-organize" d="M340.447 893.976c0.27 0.012 0.541 0.015 0.813 0.015h341.501c0.271 0 0.542-0.004 0.811-0.015h20.516v-298.23h-384.151v298.23h20.514zM127.834 155.296c-11.779 0-21.327 9.544-21.327 21.327v234.612c0 19.395 15.72 35.111 35.111 35.111h349.040v93.214c0 11.779 9.584 21.327 21.363 21.327s21.327-9.544 21.327-21.327v-93.214h349.040c19.431 0 35.151-15.72 35.151-35.111v-234.612c0-11.779-9.544-21.327-21.363-21.327-11.779 0-21.327 9.544-21.327 21.327v227.037h-341.501v-205.673c0-11.779-9.544-21.363-21.327-21.363s-21.363 9.584-21.363 21.363v205.673h-341.501v-227.037c0-11.779-9.544-21.327-21.327-21.327zM234.546 120.913c11.779 0 21.327-9.544 21.327-21.327v-206.963c0-11.779-9.544-21.327-21.327-21.327h-213.439c-11.779 0-21.327 9.544-21.327 21.327v206.963c0 11.779 9.544 21.327 21.327 21.327h213.439zM1002.893 120.913c11.779 0 21.327-9.544 21.327-21.327v-206.963c0-11.779-9.544-21.327-21.327-21.327h-213.439c-11.779 0-21.327 9.544-21.327 21.327v206.963c0 11.779 9.544 21.327 21.327 21.327h213.439zM618.717 120.913c11.779 0 21.327-9.544 21.327-21.327v-206.963c0-11.779-9.544-21.327-21.327-21.327h-213.439c-11.779 0-21.327 9.544-21.327 21.327v206.963c0 11.779 9.544 21.327 21.327 21.327h213.439z" />
<glyph unicode="&#xe937;" glyph-name="txt2" d="M747.193 406.757v34.357h-192.413v-34.357h75.581v-187.808h43.541v187.808h73.292zM463.15 328.886l75.61 112.226h-50.407c-25.203-41.223-38.935-66.426-41.223-71.003-2.318-2.289-4.606-6.866-6.895-11.472-2.289-4.548-4.577-4.548-4.577-6.837 0 2.289-2.289 4.548-4.577 9.125-2.259 4.606-4.577 6.895-4.577 6.895-2.259 4.577-16.020 27.462-43.512 71.003h-50.407l75.61-109.938-84.764-112.256h50.378c32.098 48.118 50.436 73.292 50.436 75.581 4.577 6.895 6.837 11.472 9.125 16.049 2.289-4.577 4.577-9.154 9.154-13.761 2.289-2.289 18.337-27.462 50.436-75.551h52.666l-82.476 109.938zM316.565 406.757v34.357h-192.413v-34.357h75.61v-187.808h43.483v187.808h73.321zM838.823 768.669v-100.784c0-11.443 9.154-22.914 22.886-22.914h96.207l-119.092 123.699zM236.378 541.897v199.279c0 50.407 41.252 91.63 91.63 91.63h510.815l183.231-187.836v-377.933c0-13.761-9.154-22.914-22.914-22.914-13.732 0-22.886 9.154-22.886 22.914v332.132h-114.544c-38.935 0-68.715 29.78-68.715 68.715v119.092h-464.986c-25.203 0-45.8-20.598-45.8-45.8v-199.279h510.786c25.203 0 45.83-20.598 45.83-45.8v-320.689c0-25.175-20.626-45.8-45.83-45.8h-510.786v-68.715c0-25.203 20.598-45.83 45.8-45.83h602.416c25.203 0 45.83 20.626 45.83 45.83v68.715c0 13.732 9.154 22.886 22.886 22.886 13.761 0 22.914-9.154 22.914-22.886v-68.715c0-50.407-41.223-91.63-91.63-91.63h-602.416c-50.378 0-91.63 41.223-91.63 91.63v68.715h-153.479c-25.175 0-45.8 20.626-45.8 45.8v320.689c0 25.203 20.626 45.8 45.8 45.8h153.479z" />
<glyph unicode="&#xe938;" glyph-name="plan-remind" d="M459.475 827.243c-1.082 3.889-1.655 7.951-1.655 12.132 0 28.477 26.615 51.559 59.449 51.559s59.449-23.083 59.449-51.559c0-4.995-0.817-9.822-2.344-14.385 150.904-29.42 264.798-161.006 264.796-318.722l3.649-273.071c0.109-8.062 3.629-15.703 9.686-21.024l61.257-53.8c13.741-12.051 23.241-28.177 27.133-46.023 4.459-20.46 1.45-38.987-11.182-53.039-12.117-13.478-29.432-21.167-47.59-21.167h-725.861c-35.167 0-63.807 28.313-63.807 63.402 0 18.187 7.857 35.481 21.55 47.506l68.145 59.847c6.434 5.651 9.985 13.893 9.669 22.452l-10.067 274.54c0 162.531 120.449 297.121 277.727 321.359zM509.179-128.357c-36.856 0-72.769 27.415-107.738 82.248-2.192 3.436-3.394 7.819-3.394 12.354 0 10.449 6.265 18.92 13.999 18.92h199.909c3.613 0 7.085-1.885 9.689-5.267 5.578-7.233 5.764-19.21 0.413-26.753-38.561-54.337-76.189-81.506-112.876-81.506z" />
<glyph unicode="&#xe939;" glyph-name="spot" d="M570.205 230.335c-54.060 0-98.772-37.528-110.384-88.308-41.923 10.496-80.008 32.017-109.794 61.277 13.22 15.417 21.518 35.854 21.518 57.93 0 48.549-39.168 87.75-87.75 87.75h-4.953c-1.116 8.825-1.673 18.206-1.673 27.031 0 36.97 8.267 71.741 23.192 103.2 5.511-1.641 11.58-2.199 17.648-2.199 40.282 0 73.382 32.542 73.382 73.382 0 9.939-1.641 18.764-5.511 27.587 38.085 25.39 83.878 39.759 132.46 39.759 46.351 0 89.947-13.253 126.917-36.445l-121.406-137.938c-1.641 0-3.87 0.525-6.069 0.525-33.658 0-61.244-27.587-61.244-61.244s27.587-61.244 61.244-61.244c33.658 0 61.244 27.587 61.244 61.244 0 9.939-2.199 19.322-6.626 28.145l118.094 134.101c42.513-43.596 69.019-103.2 69.019-168.316 0-79.45-38.643-149.553-97.722-193.705-19.847 28.702-53.502 47.466-91.588 47.466zM518.343-58.827c-240.057 0-435.961 195.345-435.961 435.961 0 240.025 195.345 435.961 435.961 435.961 95.458 0 184.324-30.901 256.065-83.32l-88.308-100.445c-49.107 33.1-107.072 50.748-167.759 50.748-65.114 0-126.949-20.405-178.255-58.488-7.184 2.231-14.336 3.312-22.076 3.312-40.282 0-73.382-32.542-73.382-73.382 0-11.054 2.756-22.076 7.152-31.459-23.159-43.596-35.854-92.178-35.854-142.926 0-18.239 1.641-35.887 4.953-53.535-15.452-16.007-24.832-37.528-24.832-61.244 0-48.582 39.201-87.75 87.75-87.75 3.312 0 6.626 0 9.939 0.525 3.312-3.837 7.184-7.709 11.022-11.58 44.154-44.121 99.362-72.824 158.933-83.878 15.452-43.596 57.407-74.497 106.514-74.497 62.36 0 113.141 50.781 113.141 113.141v5.511c17.648 11.58 34.213 24.832 49.107 39.724 56.849 56.849 88.308 133.018 88.308 213.584s-31.459 156.702-88.308 213.551l-0.558 0.558 88.308 99.888c82.763-79.45 134.659-190.95 134.659-314.555-0.59-240.057-195.936-435.403-436.518-435.403zM976.38 570.28c-24.832 59.046-60.719 112.025-106.514 157.818-45.827 45.795-98.772 81.682-157.818 106.514-61.277 25.915-126.392 39.168-193.149 39.168-66.788 0-131.904-13.253-193.149-39.168-59.046-24.832-112.025-60.719-157.85-106.514-45.795-45.795-81.649-98.772-106.514-157.818-25.915-61.277-39.168-126.392-39.168-193.149 0-66.788 13.253-131.904 39.168-193.149 24.865-59.046 60.719-112.025 106.514-157.85 45.827-45.795 98.805-81.649 157.85-106.482 61.244-25.948 126.359-39.201 193.149-39.201 66.755 0 131.87 13.253 193.149 39.201 59.046 24.832 111.992 60.687 157.818 106.482 45.795 45.827 81.682 98.805 106.514 157.85 25.915 61.244 39.168 126.359 39.168 193.149-0.558 66.755-13.253 131.87-39.168 193.149z" />
<glyph unicode="&#xe93a;" glyph-name="plan-report" d="M906.304 763.024h-274.299c0 68.817-54.861 120.43-120.005 120.43s-120.005-55.053-120.005-120.43h-274.299c-17.144 0-30.858-13.765-30.858-30.967v-791.397c0-17.205 13.714-30.967 30.858-30.967h788.611c17.144 0 30.858 13.765 30.858 30.967v791.397c0 17.205-13.714 30.967-30.858 30.967zM512 821.52c34.289 0 61.716-27.526 61.716-61.936s-27.431-61.936-61.716-61.936c-34.289 0-61.716 27.526-61.716 61.936s27.431 61.936 61.716 61.936zM875.446-31.814h-730.323v732.904h120.005v-92.903c0-17.205 13.714-30.967 30.858-30.967h425.165c17.144 0 30.858 13.765 30.858 30.967v92.903h120.005v-732.904h3.428zM772.585 119.586v-30.967h-524.598v30.967l65.147 134.194h130.291v-68.817h130.291v68.817h133.722l65.147-134.194zM361.137 350.123l147.436 147.956 147.436-147.956h-113.15v-130.754h-65.147v130.754h-116.577z" />
<glyph unicode="&#xe93b;" glyph-name="allcheck" d="M122.225 121.689c-41.882 0-75.941-34.054-75.941-75.932 0-41.86 34.058-75.932 75.941-75.932 41.864 0 75.923 34.072 75.923 75.932 0 41.878-34.058 75.932-75.923 75.932zM122.897-70.395c-64.563 0-117.092 52.529-117.092 117.092s52.529 117.092 117.092 117.092c64.563 0 117.072-52.529 117.072-117.092s-52.511-117.092-117.072-117.092zM253.844 453.684c-8.031 8.051-21.075 8.051-29.126 0l-129.979-129.979-53.766 53.766c-8.051 8.051-21.095 8.051-29.145 0-8.031-8.051-8.031-21.075 0-29.126l65.715-67.77c1.195-1.214 2.527-2.194 3.937-3.056 7.991-5.288 18.862-4.407 25.914 2.645l146.452 144.395c8.051 8.031 8.051 21.075 0 29.126zM253.844 802.023c-8.051 8.051-21.095 8.051-29.126 0l-129.979-129.959-53.786 53.766c-8.051 8.031-21.095 8.031-29.126 0-8.031-8.051-8.031-21.095 0-29.145l65.694-67.751c1.214-1.214 2.547-2.213 3.937-3.056 8.011-5.288 18.882-4.426 25.933 2.624l146.452 144.395c8.031 8.051 8.031 21.095 0 29.126zM1006.017 38.523h-631.286c-11.361 0-20.586 9.225-20.586 20.605 0 11.361 9.225 20.586 20.586 20.586h631.286c11.361 0 20.586-9.225 20.586-20.586 0-11.38-9.225-20.605-20.586-20.605zM1006.017 355.195h-631.286c-11.361 0-20.586 9.225-20.586 20.605s9.225 20.586 20.586 20.586h631.286c11.361 0 20.586-9.206 20.586-20.586s-9.225-20.605-20.586-20.605zM1006.017 671.868h-631.286c-11.361 0-20.586 9.206-20.586 20.586s9.225 20.605 20.586 20.605h631.286c11.361 0 20.586-9.225 20.586-20.605s-9.225-20.586-20.586-20.586z" />
<glyph unicode="&#xe93c;" glyph-name="plan-unaduit" d="M828.855 288.431c103.191 0 186.844-83.654 186.844-186.845s-83.654-186.844-186.845-186.844c-103.191 0-186.845 83.653-186.845 186.844s83.654 186.845 186.845 186.845zM908.983 45.679l-55.904 55.904 55.904 55.904c6.689 6.689 6.689 17.534 0 24.223s-17.535 6.689-24.224 0l-55.904-55.904-55.906 55.904c-6.689 6.689-17.533 6.689-24.222 0s-6.69-17.534 0-24.223l55.904-55.904-55.904-55.904c-6.691-6.69-6.691-17.534 0-24.224 6.689-6.689 17.533-6.689 24.222 0l55.905 55.904 55.904-55.904c6.689-6.689 17.535-6.689 24.224 0s6.689 17.533 0 24.224zM751.539 864c45.102 0 77.314-32.216 77.314-77.314v-425.235c-32.216 0-64.429-6.441-96.644-19.33s-57.987-32.216-83.759-57.987c-19.33-19.33-38.657-51.543-51.543-90.2-12.886-32.216-19.33-64.429-19.33-103.086s6.441-70.873 19.33-103.086c12.886-32.216 32.216-57.987 57.987-83.759h-579.867c-45.102 0-77.314 38.657-77.314 77.314v805.368c0 45.102 38.657 77.314 77.314 77.314h676.511zM184.56 670.711c-19.33 0-38.657-19.33-38.657-38.657s19.33-38.657 38.657-38.657h193.289c19.33 0 38.657 19.33 38.657 38.657s-19.33 38.657-38.657 38.657h-193.289zM455.165 148.832c19.33 0 38.657 19.33 38.657 38.657s-19.33 38.657-38.657 38.657h-270.603c-19.33 0-38.657-19.33-38.657-38.657s19.33-38.657 38.657-38.657h270.603zM642.009 374.336c25.771 0 38.657 12.886 38.657 38.657 0 19.33-19.33 38.657-38.657 38.657h-457.451c-19.33 0-38.657-19.33-38.657-38.657 0-25.771 19.33-38.657 38.657-38.657h457.451z" />
<glyph unicode="&#xe93d;" glyph-name="pie" d="M908.529 310.275h-447.965c-22.591 0-40.91 18.319-40.91 40.91v447.997c-229.34-20.707-409.129-213.253-409.129-447.965 0-248.568 201.533-450.039 450.039-450.039 234.713 0 427.289 179.726 447.965 409.098zM500.468 388.794v486.424c257.933-23.283 463.11-228.491 486.424-486.424h-486.424z" />
<glyph unicode="&#xe93e;" glyph-name="plan-upload" d="M547.374 392.081v-424.661c0-17.352-14.068-31.42-31.42-31.42s-31.42 14.068-31.42 31.42v424.199l-102.998-102.134c-12.338-12.217-32.244-12.119-44.461 0.221s-12.119 32.244 0.221 44.461l157.231 155.848c5.909 5.881 13.917 9.167 22.255 9.131s16.316-3.389 22.176-9.321l155.91-157.231c12.186-12.358 12.102-32.239-0.188-44.492-5.9-5.8-13.846-9.050-22.12-9.048-8.363 0.013-16.384 3.333-22.308 9.238l-102.872 103.791zM807.475 140.99h-113.807c-17.352 0-31.42 14.068-31.42 31.42s14.068 31.42 31.42 31.42h113.807c82.434 0.034 149.271 66.814 149.376 149.25-0.069 82.478-66.896 149.335-149.376 149.438h-85.025l4.714 43.612c0.565 4.147 1.257 8.294 1.257 12.631-0.139 116.116-94.217 210.222-210.332 210.394-116.141-0.139-210.256-94.253-210.394-210.394 0-4.337 0.691-8.484 1.257-12.631l4.714-43.612h-87.288c-82.455-0.139-149.243-66.982-149.312-149.438 0.103-82.409 66.903-149.181 149.312-149.25h113.807c17.352 0 31.42-14.068 31.42-31.42s-14.068-31.42-31.42-31.42h-113.807c-117.101 0.103-212.016 94.99-212.155 212.091 0.069 117.162 94.993 212.141 212.155 212.28h18.538c3.747 148.201 124.863 266.447 273.111 266.639 148.261-0.157 269.398-118.423 273.111-266.639h16.277c117.196-0.103 212.175-95.085 212.28-212.28-0.172-117.112-95.105-211.988-212.216-212.091z" />
<glyph unicode="&#xe93f;" glyph-name="more" d="M512-47.128c238.105 0 431.127 193.022 431.127 431.127s-193.022 431.127-431.127 431.127c-238.105 0-431.127-193.022-431.127-431.127s193.022-431.127 431.127-431.127zM512-116.946c-276.665 0-500.945 224.281-500.945 500.945s224.281 500.945 500.945 500.945c276.665 0 500.945-224.281 500.945-500.945s-224.281-500.945-500.945-500.945zM258.375 320.593c35.018 0 63.406 28.388 63.406 63.406s-28.388 63.406-63.406 63.406c-35.018 0-63.406-28.388-63.406-63.406s28.388-63.406 63.406-63.406zM512 320.593c35.018 0 63.406 28.388 63.406 63.406s-28.388 63.406-63.406 63.406c-35.018 0-63.406-28.388-63.406-63.406s28.388-63.406 63.406-63.406zM765.625 320.593c35.018 0 63.406 28.388 63.406 63.406s-28.388 63.406-63.406 63.406c-35.018 0-63.406-28.388-63.406-63.406s28.388-63.406 63.406-63.406z" />
<glyph unicode="&#xe940;" glyph-name="play3" d="M512-128c-282.769 0-512 229.231-512 512s229.231 512 512 512c282.769 0 512-229.231 512-512s-229.231-512-512-512zM512-71.109c251.349 0 455.109 203.76 455.109 455.109s-203.76 455.109-455.109 455.109c-251.349 0-455.109-203.76-455.109-455.109s203.76-455.109 455.109-455.109zM782.862 352.771l-367.166-239.346c-13.158-8.578-30.783-4.865-39.361 8.293-3.011 4.622-4.614 10.017-4.614 15.534v478.692c0 15.71 12.735 28.445 28.445 28.445 5.517 0 10.912-1.603 15.534-4.614l367.166-239.346c13.158-8.578 16.876-26.203 8.293-39.361-2.159-3.312-4.982-6.134-8.293-8.293z" />
<glyph unicode="&#xe941;" glyph-name="plan-view" d="M981.954-37.456l-130.944 130.944c62.141 87.357 46.97 207.759-34.894 276.972s-203.113 64.144-278.915-11.658c-75.805-75.805-80.874-197.052-11.658-278.915s189.615-97.035 276.972-34.894l130.944-130.944c13.393-13.393 35.105-13.393 48.498 0s13.393 35.105 0 48.498zM683.733 75.732c-65.135 0.001-121.2 46.016-133.905 109.9s21.484 127.848 81.662 152.774c60.178 24.926 129.583 3.87 165.768-50.29s29.075-126.34-16.982-172.396c-25.548-25.689-60.312-40.085-96.54-39.988h-0.003zM786.047 557.139c18.899 0 34.219 15.134 34.225 33.685s-15.317 33.704-34.219 33.707l-548.097 0.176c-18.912-0.029-34.227-15.088-34.225-33.649 0-18.554 15.317-33.722 34.219-33.722l548.097-0.194zM442.696 348.81c12.189 0 23.449 6.438 29.545 16.891s6.093 23.329 0 33.782c-6.093 10.453-17.356 16.891-29.545 16.891h-204.883c-12.177 0-23.428-6.433-29.517-16.875s-6.089-23.308 0-33.75c6.089-10.442 17.34-16.875 29.517-16.875l204.883-0.064zM237.896 210.861l136.835-0.064c12.285 0.13 23.695-6.274 29.875-16.77s6.18-23.463 0-33.959c-6.18-10.496-17.59-16.901-29.875-16.77l-136.835 0.018c-18.87 0-34.168 15.12-34.168 33.774s15.298 33.774 34.168 33.774zM614.825-27.49c18.919 0 34.258-15.335 34.258-34.256s-15.339-34.256-34.258-34.256h-421.277c-42.868-0.033-83.988 16.983-114.296 47.3s-47.307 71.443-47.252 114.305v636.765c-0.059 42.868 16.938 83.998 47.245 114.317s71.428 47.342 114.299 47.309h636.816c42.874 0.019 84.001-17.004 114.318-47.319s47.341-71.439 47.322-114.31v-0.114l-1.422-421.241c-0.227-18.812-15.559-33.935-34.376-33.905s-34.099 15.2-34.27 34.016v0.114l1.449 421.17c-0.012 24.86-9.615 48.228-27.191 65.802-17.42 17.518-41.128 27.34-65.834 27.275h-636.816c-24.688-0.009-48.359-9.823-65.806-27.287s-27.239-41.145-27.222-65.831v-636.765c-0.017-24.684 9.776-48.361 27.223-65.821s41.118-27.272 65.804-27.274h421.28z" />
<glyph unicode="&#xe942;" glyph-name="office-1" d="M696.745 326.997v125.384h125.337v-125.384h-125.337zM195.303 577.765v125.384h125.337v-125.384h-125.337zM383.354 577.765v125.384h125.384v-125.384h-125.384zM195.303 326.997v125.384h125.337v-125.384h-125.337zM383.354 326.997v125.384h125.384v-125.384h-125.384zM195.303 76.323v125.337h125.337v-125.337h-125.337zM383.354 76.323v125.337h125.384v-125.337h-125.384zM696.745 76.323v125.337h125.337v-125.337h-125.337zM132.6 797.099c0 8.41 3.252 16.211 9.105 22.16 6.039 5.946 13.844 9.198 22.253 9.198h376.105c8.317 0 16.211-3.252 22.207-9.245 5.853-5.899 9.105-13.704 9.105-22.114v-844.377h-438.772v844.377zM853.452 577.69c8.317 0 16.211-3.206 22.253-9.198 5.853-5.899 9.105-13.751 9.105-22.114v-593.656h-250.768v624.968h219.409zM976.561-47.278h-29.081v593.656c0 25.18-9.85 48.777-27.594 66.478-17.744 17.744-41.391 27.548-66.431 27.548h-219.409v156.696c0 25.18-9.803 48.777-27.594 66.478-17.744 17.744-41.345 27.548-66.385 27.548h-376.105c-25.040 0-48.687-9.803-66.431-27.455-17.791-17.701-27.594-41.345-27.594-66.571v-844.377h-33.633c-17.282 0-31.312-14.030-31.312-31.358s14.030-31.312 31.312-31.312h940.261c17.329 0 31.358 13.983 31.358 31.312s-14.030 31.358-31.358 31.358z" />
<glyph unicode="&#xe943;" glyph-name="office" d="M976.561-47.278c17.329 0 31.358-14.030 31.358-31.358s-14.030-31.312-31.358-31.312h-940.261c-17.282 0-31.312 13.983-31.312 31.312s14.030 31.358 31.312 31.358h33.633v844.377c0 25.226 9.803 48.87 27.594 66.571 17.744 17.654 41.391 27.455 66.431 27.455h376.105c25.040 0 48.64-9.803 66.385-27.548 17.791-17.701 27.594-41.298 27.594-66.478v-156.696h219.409c25.040 0 48.687-9.803 66.431-27.548 17.744-17.701 27.594-41.298 27.594-66.478v-593.656h29.081zM696.745 326.997h125.337v125.384h-125.337v-125.384zM195.303 577.765h125.337v125.384h-125.337v-125.384zM383.354 577.765h125.384v125.384h-125.384v-125.384zM195.303 326.997h125.337v125.384h-125.337v-125.384zM383.354 326.997h125.384v125.384h-125.384v-125.384zM195.303 76.323h125.337v125.337h-125.337v-125.337zM383.354 76.323h125.384v125.337h-125.384v-125.337zM696.745 76.323h125.337v125.337h-125.337v-125.337z" />
<glyph unicode="&#xe944;" glyph-name="earphone" d="M942.31 139.524c0-32.005-22.934-58.040-51.132-58.040h-51.132v248.706h51.132c28.198 0 51.132-26.036 51.132-58.040v-132.624zM109.296 81.484c-28.151 0-51.086 26.036-51.086 58.040v132.624c0 32.005 22.934 58.040 51.086 58.040h51.179l-0.047-58.040 0.047-190.665h-51.179zM891.177 393.353h-53.858c-21.148 179.668-165.005 319.624-337.059 319.624-171.866 0-315.91-140.096-337.106-319.624h-53.858c-62.975 0-114.249-54.375-114.249-121.204v-132.624c0-66.829 51.273-121.204 114.249-121.204h82.761c8.366 0 16.402 3.336 22.324 9.258s9.258 14.005 9.258 22.324l-0.047 89.622v53.294c0.047 0.329 0.047 0.611 0.047 0.94 0 1.833 0 154.431 0 158.848 2.49 163.877 126.561 297.206 276.622 297.206 150.671 0 274.741-133.893 276.574-298.475 0.047-4.136 0.047-129.099 0.047-153.49v-147.946c0-17.435 14.099-31.582 31.582-31.582h82.714c62.975 0 114.295 54.375 114.295 121.204v132.624c0 66.829-51.273 121.204-114.295 121.204z" />
</font>
</defs>
</svg>
